<svg xmlns="http://www.w3.org/2000/svg" viewBox="0 0 500 500"><g id="freepik--astronaut-helmet--inject-39"><path d="M394.54,377.3c0,47.88-63.72,86.69-142.32,86.69S109.9,425.18,109.9,377.3c0-3.62-.71-15.13,0-18.64,8.65-42.82,69.66-68,142.32-68,72,0,137.38,30.08,142.32,73.12C394.9,366.93,394.54,373.29,394.54,377.3Z" style="fill:#8E5D52"></path><path d="M394.54,377.3c0,47.88-63.72,86.69-142.32,86.69S109.9,425.18,109.9,377.3c0-3.62-.71-15.13,0-18.64,8.65-42.82,69.66-68,142.32-68,72,0,137.38,30.08,142.32,73.12C394.9,366.93,394.54,373.29,394.54,377.3Z" style="opacity:0.30000000000000004"></path><path d="M394.54,358.66c0,47.88-62.15,87.51-140.75,87.51S109.9,406.54,109.9,358.66,173.62,272,252.22,272,394.54,310.79,394.54,358.66Z" style="fill:#8E5D52"></path><ellipse cx="251.55" cy="345.42" rx="137.19" ry="85.37" style="fill:#8E5D52"></ellipse><ellipse cx="251.55" cy="349.85" rx="137.19" ry="89.8" style="opacity:0.30000000000000004"></ellipse><path d="M400.82,197.68a17.41,17.41,0,0,1,17.24,9.47c6.06,11.16,8.5,25.27,8.49,42.72,0,13.83-6.85,42.88-21.84,44.17V243.56Z" style="fill:#8E5D52"></path><path d="M105,195.5a54.14,54.14,0,0,0,2-5.93C110.82,175,132.45,109.18,209.62,89.4c86.95-22.28,137.74,23,154.54,43.12C378,149,393.48,181.75,398.6,193a60,60,0,0,0,3.65,6.8c3.71,5.94,11.59,20,12.7,33.6,1.46,17.9-5.85,58.46-11.33,76.36-3,9.77-7.5,23.57-11,34.09a59.29,59.29,0,0,1-20.57,28.77c-20.55,15.48-58.92,38.81-118.21,36.81,0,0-92.12-.77-129.7-46.26a57.78,57.78,0,0,1-11-21.38c-4-14.24-12-43.53-12.8-49.57C99.31,284.31,86.8,241.7,105,195.5Z" style="fill:#8E5D52"></path><path d="M391.09,229.22a.49.49,0,0,1,0-.12c0-.09,0-.19-.05-.27-.13-.9-.28-1.8-.44-2.69-.31-1.69-.66-3.37-1.08-5a74,74,0,0,0-3.09-9.67c-.16-.4-.89-1.65-.2-.52a7.71,7.71,0,0,1-.46-1.06c-.33-.74-.67-1.47-1-2.2q-1.08-2.22-2.31-4.37T379.78,199c-.47-.69-.94-1.37-1.42-2l-.65-.88-.47-.63c.44.59-.36-.44-.49-.61l-.78-1c-.5-.59-1-1.18-1.51-1.76q-1.57-1.78-3.26-3.46a85.43,85.43,0,0,0-7.18-6.4c-.31-.25-1.28-1.27-.35-.29a7,7,0,0,0-.87-.65L360.94,180c-1.3-.92-2.61-1.81-3.95-2.66-2.67-1.72-5.43-3.31-8.25-4.79s-5.71-2.86-8.64-4.12l-.75-.33c-.57-.25,0,0,.22.09a9.87,9.87,0,0,0-1-.41c-.71-.3-1.43-.58-2.15-.87-1.49-.57-3-1.13-4.48-1.66a195.41,195.41,0,0,0-35.76-8.72l-2.29-.34c-.48-.07-2.78-.31-1-.15-1.36-.13-2.72-.36-4.08-.51-2.58-.31-5.17-.57-7.76-.8q-6.76-.58-13.57-.83c-5.41-.2-10.82-.09-16.23-.15-7.39-.09-14.78.19-22.15.76q-3.82.3-7.64.7c-1.3.14-2.59.28-3.88.44l-2.21.28-.15,0-.88.12c-5.82.81-11.62,1.83-17.36,3.1a183.4,183.4,0,0,0-18.18,4.94q-4.61,1.51-9.1,3.31l-1.26.51-.27.11c-.69.28-1.36.58-2,.88q-2.19,1-4.34,2a108.62,108.62,0,0,0-16.36,9.77l-1.09.81-.36.28c-.57.45-1.13.89-1.69,1.35-1.22,1-2.42,2-3.58,3.11a78.3,78.3,0,0,0-6.7,6.93c-.53.62-1.06,1.25-1.57,1.89l-.2.25-.58.78c-1,1.32-1.94,2.68-2.83,4.08a70.82,70.82,0,0,0-4.75,8.62c-.2.43-.4.87-.59,1.31a1.89,1.89,0,0,0-.11.25,12.7,12.7,0,0,1-1,2.42c-.59,1.58-1.13,3.17-1.61,4.79a79.4,79.4,0,0,0-2.41,10.77c-.06.43-.31,1.67-.08.54a14.74,14.74,0,0,0-.18,1.47c0,.19,0,.38-.06.57s0,.63,0,.95c-.08,1.66-.1,3.33-.11,5,0,7,.36,14.05,1,21.05.22,2.54.48,5.07.76,7.61.16,1.37.32,2.74.49,4.11l.24,1.9.05.33c0,.29.07.58.11.87.86,6.16,1.81,12.33,3.08,18.42a134.27,134.27,0,0,0,4.61,16.6c.46,1.32.94,2.62,1.45,3.92.22.57.44,1.13.67,1.7,0,.09.38.91.46,1.13,1,2.39,2.12,4.75,3.29,7.06a110,110,0,0,0,7.35,12.48c.66,1,1.33,1.92,2,2.87l1,1.37.56.72q1.94,2.42,4,4.7a84.6,84.6,0,0,0,8.6,8l.61.45c.32.24.65.47,1,.7.68.48,1.38.94,2.08,1.39,1.25.79,2.53,1.52,3.82,2.24,2.82,1.58,5.71,3,8.64,4.37l2.46,1.09.63.3-.31-.16c.41.22.88.36,1.3.54,1.77.72,3.54,1.4,5.33,2.05a171,171,0,0,0,25.74,7q3.72.73,7.47,1.3l2.21.33,1.21.16c1.24.16,2.48.32,3.72.46q8.68,1,17.43,1.26c12,.42,24.09.2,36.08-.38,4.89-.23,9.78-.56,14.65-1,2.21-.22,4.42-.46,6.62-.74.31,0,1.67-.22,1.21-.15l1-.14,2.79-.42a133.35,133.35,0,0,0,19-4.33c2.45-.78,4.87-1.64,7.26-2.61.31-.13.62-.27.94-.39l-.15.06h0c-.34.15-1.22.48,0,0l1.51-.68c1-.45,2-.93,3-1.43,3.65-1.82,7.16-3.9,10.65-6,2.07-1.26,4.18-2.47,6.17-3.84.68-.47,1.34-1,2-1.45.15-.11.36-.27.51-.4l1.11-.9c1.48-1.24,2.9-2.55,4.28-3.91s2.86-2.94,4.21-4.49c.77-.88,1.52-1.78,2.25-2.68l.74-.94.62-.82a106.39,106.39,0,0,0,7.64-11.82q1.89-3.39,3.54-6.88c.57-1.21,1.12-2.42,1.65-3.64l.27-.63.15-.35.76-1.9a131.56,131.56,0,0,0,5.14-16.06c1.48-5.92,2.5-11.94,3.43-18,.24-1.52.46-3,.68-4.56.08-.6.17-1.19.25-1.79,0-.16.07-.54.08-.64l.12-.95q.51-3.93.91-7.88c1.06-10.41,2-21.15,1.23-31.63C391.22,230.3,391.15,229.76,391.09,229.22Z" style="fill:#e0e0e0"></path><path d="M107.19,196.94A17.4,17.4,0,0,0,90,206.4c-6.07,11.17-8.5,25.28-8.5,42.72,0,13.84,6.85,42.89,21.85,44.18V242.81Z" style="fill:#8E5D52"></path><path d="M130.84,171.31a4.46,4.46,0,0,1-.5.5l-1.5,1.34c-.65.57-1.45,1.28-2.33,2.15s-1.93,1.81-3,3L121.86,180c-.58.62-1.14,1.3-1.75,2-1.22,1.36-2.4,2.92-3.67,4.54a92.22,92.22,0,0,0-12.89,23.35c-.69,1.93-1.38,3.76-1.88,5.53-.26.87-.54,1.71-.76,2.53l-.6,2.37c-.42,1.5-.66,2.89-.92,4.1s-.45,2.26-.58,3.12-.26,1.47-.34,2a3.56,3.56,0,0,1-.16.68,4.59,4.59,0,0,1,0-.7c.06-.51.15-1.17.25-2s.24-1.93.49-3.15.45-2.61.85-4.13l.57-2.38c.21-.83.49-1.68.74-2.56.48-1.77,1.16-3.62,1.84-5.57a96.92,96.92,0,0,1,5.59-12.23,98.72,98.72,0,0,1,7.36-11.25c1.29-1.61,2.49-3.17,3.74-4.52.61-.69,1.18-1.37,1.77-2l1.71-1.76c1.07-1.14,2.14-2.07,3-2.92s1.72-1.55,2.4-2.1l1.56-1.27A4.06,4.06,0,0,1,130.84,171.31Zm275,130.34c.08-.23.19-.58.33-1,.29-.92.67-2.29,1.12-4.07.89-3.55,2-8.74,3-15.22a214.12,214.12,0,0,0,2.15-22.91,151.39,151.39,0,0,0-1.32-28.14,107.25,107.25,0,0,0-6.4-24.68v0a73.73,73.73,0,0,0-17.87-28.36,72.18,72.18,0,0,0-7.34-6.33c-.9-.68-1.63-1.15-2.11-1.49l-.55-.37-.19-.12s0,.06.17.15.31.24.52.4c.47.36,1.18.86,2.06,1.56a76.93,76.93,0,0,1,7.22,6.41,74.39,74.39,0,0,1,17.63,28.3h0v0a107.37,107.37,0,0,1,6.32,24.55,153,153,0,0,1,1.36,28,219.14,219.14,0,0,1-2,22.88c-.92,6.47-2,11.66-2.83,15.22-.43,1.78-.78,3.16-1,4.09-.12.44-.21.79-.29,1.06a2.07,2.07,0,0,0-.08.36A1.49,1.49,0,0,0,405.89,301.65ZM300.67,142.09l-.71-.18-2.76-.64c-1.19-.28-2.66-.61-4.37-.93s-3.66-.73-5.83-1.06-4.54-.75-7.11-1.07-5.3-.63-8.19-.94c-5.78-.51-12.16-.88-18.86-.94s-13.09.28-18.88.73c-2.89.27-5.64.5-8.2.85s-4.95.64-7.12,1-4.12.7-5.84,1-3.19.61-4.39.88l-2.76.61-.71.17a.75.75,0,0,0-.24.08.79.79,0,0,0,.25,0l.73-.12,2.77-.51c1.21-.24,2.68-.52,4.4-.79s3.67-.64,5.84-.92,4.55-.66,7.12-.92,5.3-.54,8.19-.8c5.78-.43,12.14-.71,18.83-.68s13.06.4,18.83.89c2.88.29,5.63.54,8.18.89s4.93.66,7.1,1,4.12.69,5.83,1,3.19.59,4.39.84l2.77.54.73.13a.79.79,0,0,0,.25,0A.75.75,0,0,0,300.67,142.09Z" style="fill:#263238"></path><path d="M209.62,89.4c-55,14.09-81.75,51.54-94,77.18a154.45,154.45,0,0,1,74-66.25c38.92-16.58,85.14-17,124.46-1.2,22.76,9.16,41.74,24.53,57.54,43.43a113.51,113.51,0,0,0-7.4-10C347.36,112.42,296.57,67.12,209.62,89.4Z" style="fill:#fff;opacity:0.5"></path><path d="M216.77,401.26c-7.18-6.51-63.28-24.91-85-50s-28.51-70.49-33.36-97.42c-2.27-12.59-.58-28.37,1.87-41.6l-3.62,14.83c-4.65,32.74,2.85,59.1,3.67,65.11s8.85,35.33,12.8,49.57a57.78,57.78,0,0,0,11,21.38C152,396.83,209.81,406,237.87,408.46,228.35,406.9,220.2,404.37,216.77,401.26Z" style="opacity:0.30000000000000004"></path><path d="M102.1,203.56c-.6,2.71-1.21,5.62-1.77,8.67l3-12.4C102.91,201.08,102.5,202.32,102.1,203.56Z" style="opacity:0.30000000000000004"></path><path d="M403,201.18c2,7.85,4.55,20,4,29-.85,14.59,1.35,33.47-2.35,53s-7.08,40.19-27,66.72S333.9,381.29,311.35,391c-22.05,9.49-23.62,16-40.44,18.39,52.61-2,82.52-22.79,101.15-36.82a59.29,59.29,0,0,0,20.57-28.77c3.49-10.52,8-24.32,11-34.09,5.48-17.9,10.26-52.2,8.8-70.1C411.38,226.93,406.68,208.46,403,201.18Z" style="opacity:0.30000000000000004"></path><path d="M208.65,124.94V80.61c0-1.73,24.76-8.64,44.34-7.49s44.33,2.31,44.91,8.06,0,41.46,0,41.46" style="fill:#8E5D52"></path><path d="M297.9,122.64a4.13,4.13,0,0,1,0-.46c0-.33,0-.77,0-1.35,0-1.21,0-3,0-5.18,0-4.53,0-11,.07-19.08,0-4,0-8.44-.16-13.16,0-.59-.05-1.18-.1-1.78a2.25,2.25,0,0,0-.55-1.55,7.39,7.39,0,0,0-3-1.9,40.26,40.26,0,0,0-7.49-1.89c-10.49-1.72-22.21-2.21-34.46-3a103.74,103.74,0,0,0-17.85.88A138.4,138.4,0,0,0,218,77.31a59.65,59.65,0,0,0-7.39,2.31,7.39,7.39,0,0,0-1.58.85.48.48,0,0,0-.1.12s0,0,0,0,0,.07,0,.1v5c0,4.74,0,9.15,0,13.18,0,8-.06,14.54-.08,19.07,0,2.23,0,4-.05,5.19,0,.57,0,1,0,1.34s0,.46,0,.46,0-.15,0-.46,0-.77,0-1.34c0-1.21,0-3,0-5.19,0-4.53-.05-11-.08-19.07,0-4,0-8.44,0-13.18v-5a.56.56,0,0,1,0-.13.47.47,0,0,1,.06-.2,1,1,0,0,1,.2-.24,7.14,7.14,0,0,1,1.7-.94,57.8,57.8,0,0,1,7.45-2.35,137.14,137.14,0,0,1,16.43-3.14,104.73,104.73,0,0,1,17.94-.89c6.14.35,12.13.69,17.91,1.12s11.35,1,16.61,1.88a40.47,40.47,0,0,1,7.58,1.93,7.83,7.83,0,0,1,3.2,2,3,3,0,0,1,.49.85l.11.49,0,.46c0,.6.08,1.2.09,1.79.14,4.75.11,9.16.1,13.18,0,8.06-.15,14.57-.24,19.08-.05,2.23-.09,4-.12,5.18,0,.58,0,1-.05,1.35S297.9,122.64,297.9,122.64Z" style="fill:#263238"></path><path d="M298.16,120.1C298,119,305.39,92,305.39,92l-7.25-2.4Z" style="opacity:0.30000000000000004"></path><path d="M297.9,81.18c-.58-5.75-25.34-6.91-44.91-8.06s-44.34,5.76-44.34,7.49v12.9l.07.06c15-2,27.2-14.35,42.25-15.5,8.35-.63,16.55,2.3,24.18,5.76s14.94,7.45,23,9.38C298.15,87.63,298.08,83,297.9,81.18Z" style="fill:#fff;opacity:0.5"></path><path d="M297.9,122.64a4.13,4.13,0,0,1,0-.46c0-.33,0-.77,0-1.35,0-1.21,0-3,0-5.19,0-4.53,0-11,.07-19.08,0-4,0-8.44-.16-13.16,0-.59-.06-1.19-.1-1.78a2.34,2.34,0,0,0-.55-1.56,7.54,7.54,0,0,0-3-1.94,39,39,0,0,0-7.45-2,157.61,157.61,0,0,0-16.57-1.92c-5.77-.4-11.77-.67-17.9-.84a128.75,128.75,0,0,0-17.87.94,135.25,135.25,0,0,0-16.41,3,55,55,0,0,0-7.39,2.31,6.84,6.84,0,0,0-1.56.86l-.11.13s0,0,0,.11v5c0,4.74,0,9.15,0,13.18,0,8-.06,14.55-.08,19.08,0,2.23,0,4-.05,5.19,0,.57,0,1,0,1.34s0,.46,0,.46,0-.15,0-.46,0-.77,0-1.34c0-1.22,0-3,0-5.19,0-4.53-.05-11-.08-19.08,0-4,0-8.44,0-13.18v-5a.57.57,0,0,1,.07-.33.73.73,0,0,1,.19-.23,6.66,6.66,0,0,1,1.69-1,54.86,54.86,0,0,1,7.45-2.36,134.45,134.45,0,0,1,16.46-3,126.82,126.82,0,0,1,18-1c6.15.17,12.14.44,17.93.85a156.37,156.37,0,0,1,16.62,2,39.3,39.3,0,0,1,7.54,2,8.11,8.11,0,0,1,3.18,2.08,3,3,0,0,1,.49.86l.11.48c0,.16,0,.31,0,.46,0,.61.08,1.21.09,1.8.14,4.74.11,9.16.1,13.18,0,8.06-.15,14.58-.24,19.09-.05,2.23-.09,4-.12,5.18,0,.58,0,1-.05,1.35S297.9,122.64,297.9,122.64Z" style="fill:#263238"></path><path d="M272.81,131.07a12.16,12.16,0,0,1-1.65-.22c-1.06-.18-2.59-.42-4.49-.67a110.17,110.17,0,0,0-29.84,0c-1.9.26-3.43.49-4.49.68a12,12,0,0,1-1.66.22,9.09,9.09,0,0,1,1.62-.42c1-.25,2.58-.54,4.47-.85a96.83,96.83,0,0,1,30,0c1.9.31,3.43.6,4.48.84A9.55,9.55,0,0,1,272.81,131.07Z" style="fill:#fff"></path><path d="M394.54,366.52s-.05.29-.18.85-.33,1.4-.58,2.48-.63,2.42-1.12,4c-.25.77-.46,1.63-.81,2.51l-1.05,2.81a76.11,76.11,0,0,1-7.16,13.7,79.51,79.51,0,0,1-5.81,7.72,88.65,88.65,0,0,1-7.59,7.74c-5.64,5.11-12.61,9.75-20.28,14.3-3.84,2.27-7.88,4.51-12.14,6.64a112.43,112.43,0,0,1-13.47,5.82,249.11,249.11,0,0,1-30.52,7.75,214.38,214.38,0,0,1-33.61,3.5,228,228,0,0,1-64.65-7.81c-2.44-.59-4.8-1.33-7.15-2s-4.67-1.35-6.91-2.15l-6.66-2.24c-1.09-.38-2.15-.81-3.22-1.2s-2.12-.79-3.14-1.24a124.52,124.52,0,0,1-21.94-11.58c-12.67-8.46-21-17.88-25.53-25l-1.63-2.53c-.47-.81-.88-1.6-1.27-2.31s-.76-1.38-1.09-2-.55-1.19-.79-1.69c-.46-1-.8-1.79-1-2.32s-.34-.8-.34-.8.14.26.38.78.62,1.29,1.09,2.29c.25.5.49,1.08.82,1.69s.7,1.25,1.1,2,.82,1.49,1.3,2.29l1.64,2.52c4.59,7.08,12.91,16.43,25.56,24.82a124.7,124.7,0,0,0,21.9,11.49c1,.44,2.08.84,3.14,1.23s2.12.81,3.21,1.19l6.65,2.23c2.24.79,4.57,1.42,6.9,2.13s4.71,1.42,7.15,2a228.13,228.13,0,0,0,64.51,7.76,214.57,214.57,0,0,0,33.53-3.48,248,248,0,0,0,30.45-7.71,113.77,113.77,0,0,0,13.43-5.77c4.24-2.12,8.28-4.35,12.12-6.6,7.67-4.53,14.62-9.13,20.25-14.21a88,88,0,0,0,7.58-7.67,78.88,78.88,0,0,0,5.82-7.67,76.71,76.71,0,0,0,7.22-13.61c.38-1,.74-1.92,1.07-2.8s.57-1.73.83-2.5c.5-1.55.93-2.87,1.17-4s.48-1.89.63-2.46S394.54,366.52,394.54,366.52Z" style="fill:#263238"></path><circle cx="250.29" cy="454.79" r="5.65" style="fill:#263238"></circle><path d="M342.19,439a5.66,5.66,0,1,1-5.66-5.66A5.65,5.65,0,0,1,342.19,439Z" style="fill:#263238"></path><path d="M169.72,436.62a5.65,5.65,0,1,1-5.65-5.65A5.65,5.65,0,0,1,169.72,436.62Z" style="fill:#263238"></path><path d="M101.4,199c-2.06,0-6.86,2.91-8.69,5.35a31.06,31.06,0,0,0-4.09,8.16c-5.69,15.51-7.52,32.69-3.46,48.7a117,117,0,0,1,2.31-20.56c1.53-6.74,4.21-13.32,8.61-18.64Z" style="fill:#fff;opacity:0.3"></path><path d="M397.11,330.16s-.05.29-.18.85-.33,1.41-.59,2.49-.64,2.43-1.13,4-1.14,3.35-1.9,5.35A75.32,75.32,0,0,1,386,356.58a77.75,77.75,0,0,1-5.89,7.73,87.24,87.24,0,0,1-7.68,7.73c-5.7,5.11-12.73,9.73-20.46,14.27-3.88,2.27-7.95,4.5-12.24,6.63a116.26,116.26,0,0,1-13.57,5.79,252.61,252.61,0,0,1-30.7,7.72,217,217,0,0,1-33.8,3.5,226.09,226.09,0,0,1-33.95-1.68,231.22,231.22,0,0,1-31.08-6,263.21,263.21,0,0,1-27.29-8.73,147.75,147.75,0,0,1-22.46-10.89,100.62,100.62,0,0,1-16.48-12.32,71.08,71.08,0,0,1-10.19-11.73l-1.69-2.51c-.51-.8-.92-1.58-1.33-2.29l-1.12-2c-.34-.61-.57-1.2-.82-1.7l-1.06-2.32c-.24-.53-.35-.8-.35-.8l.4.77c.25.53.62,1.3,1.11,2.3.25.5.49,1.09.83,1.69l1.14,2c.42.7.84,1.48,1.35,2.28l1.7,2.48a71.05,71.05,0,0,0,10.23,11.63,100.81,100.81,0,0,0,16.47,12.23,149.25,149.25,0,0,0,22.43,10.8,265.09,265.09,0,0,0,27.25,8.66,230.68,230.68,0,0,0,31,6,226.49,226.49,0,0,0,33.87,1.67A216.9,216.9,0,0,0,295.4,406,252.57,252.57,0,0,0,326,398.27a112.89,112.89,0,0,0,13.53-5.75c4.28-2.1,8.34-4.33,12.22-6.58,7.73-4.52,14.75-9.11,20.44-14.17a86.76,86.76,0,0,0,7.67-7.68,77.8,77.8,0,0,0,5.9-7.67,76.59,76.59,0,0,0,7.33-13.65c.77-2,1.47-3.74,1.93-5.32s.94-2.88,1.18-4,.49-1.91.64-2.48Z" style="fill:#263238"></path><path d="M407.26,200c2.07,0,6.86,2.9,8.7,5.34a31.5,31.5,0,0,1,4.08,8.16c5.7,15.51,7.53,32.69,3.46,48.71a118.21,118.21,0,0,0-2.3-20.57c-1.53-6.73-4.21-13.31-8.61-18.64Z" style="fill:#fff;opacity:0.3"></path><path d="M203.85,363.33s4,.82,8.7-3.82,8.18-10.48,12-12.41,46.15-1.93,50.18-1.22,10.42,10,14.45,13.63,8,6.24,16.66,4.53l-4.73-15.49L282.2,330.72,245,328.9l-28.43,6-11.75,7.19Z" style="fill:#fff"></path><path d="M384.85,233.5c-8.38-74.57-117.14-74.65-133.6-74.24-16.45-.41-125.22-.33-133.6,74.24,0,0-1.46,19.81,4.67,52.55,5.93,31.7,23.19,54.61,39,63.81s39,20.77,47.85,9.79L218,347.48s3.87-8,18.54-7.36h29.36c14.68-.59,18.54,7.36,18.54,7.36l8.82,12.17c8.8,11,32-.6,47.85-9.79s33.11-32.11,39-63.81C386.31,253.31,384.85,233.5,384.85,233.5Z" style="fill:#263238"></path><path d="M384.85,233.5s.11,1.22.16,3.6.06,5.92-.14,10.53a272.91,272.91,0,0,1-4.82,39.67c-.47,2.11-.84,4.3-1.47,6.48l-.87,3.33c-.31,1.13-.7,2.24-1,3.38a108.45,108.45,0,0,1-5.45,13.91,99.57,99.57,0,0,1-8,14.08,83.12,83.12,0,0,1-11.22,13.32l-1.65,1.56-1.75,1.47c-1.15,1-2.41,1.9-3.66,2.82-.61.48-1.29.88-1.95,1.3s-1.32.85-2,1.25l-4.13,2.34A136.25,136.25,0,0,1,319,361a56.7,56.7,0,0,1-9.86,2.82,22.06,22.06,0,0,1-10.49-.29A11.71,11.71,0,0,1,294,360.8l-.92-1-.8-1.09q-.78-1.1-1.59-2.19l-6.44-8.89h0v0a13.76,13.76,0,0,0-6.17-5.2,24.08,24.08,0,0,0-8.16-1.95c-1.42-.14-2.86-.07-4.3-.08H234.31a25.53,25.53,0,0,0-9,1.65,16.43,16.43,0,0,0-4,2.23,11.47,11.47,0,0,0-3.08,3.36v0h0c-3,4.14-6,8.36-9.15,12.55a10.66,10.66,0,0,1-3.12,2.5,12.67,12.67,0,0,1-3.77,1.34,23.42,23.42,0,0,1-8,0,64.06,64.06,0,0,1-15.43-4.87,164.65,164.65,0,0,1-14.69-7.45,69.7,69.7,0,0,1-7.08-4.43L155.29,346l-1.62-1.35c-.53-.45-1.08-.89-1.61-1.36l-1.53-1.45a83.17,83.17,0,0,1-11-12.94,108.89,108.89,0,0,1-14.7-31.21,165,165,0,0,1-4.25-20.18c-1.07-6.74-1.92-13.48-2.5-20.19s-.92-13.4-.83-20A63,63,0,0,1,121,218l.83-2.31.41-1.15c.15-.38.35-.74.51-1.11l2.09-4.4a70.89,70.89,0,0,1,5.19-8.16l1.42-1.94c.5-.62,1-1.22,1.56-1.82l1.57-1.81.78-.9.85-.83,3.41-3.32,3.63-3a99.42,99.42,0,0,1,15.65-10.08,140.38,140.38,0,0,1,16.74-7.16c5.67-1.94,11.37-3.57,17.05-4.93s11.36-2.38,17-3.24A258.44,258.44,0,0,1,242.53,159c2.66-.06,5.31,0,7.92,0s5.21-.06,7.78,0c5.14.07,10.19.29,15.12.63s9.76.86,14.47,1.44,9.29,1.32,13.73,2.21c17.8,3.41,33.52,8.81,46,16.05a89.9,89.9,0,0,1,16.18,11.82l3.24,3.17,2.84,3.26c.45.54.94,1,1.34,1.6l1.19,1.64c.77,1.1,1.58,2.12,2.26,3.19a67.31,67.31,0,0,1,6.06,12c.33.92.65,1.8.95,2.65a20.06,20.06,0,0,1,.8,2.46c.4,1.59.77,3,1.1,4.34a28.65,28.65,0,0,1,.65,3.45q.24,1.5.39,2.52c.21,1.35.3,2.05.3,2.05s-.13-.69-.35-2c-.11-.68-.25-1.52-.41-2.51a28.91,28.91,0,0,0-.68-3.45c-.34-1.29-.71-2.73-1.12-4.32a23.37,23.37,0,0,0-.81-2.45l-1-2.64a67.66,67.66,0,0,0-6.09-12c-.68-1.06-1.49-2.08-2.26-3.17l-1.2-1.64c-.39-.56-.89-1-1.33-1.59q-1.39-1.57-2.84-3.24l-3.24-3.15a90.28,90.28,0,0,0-16.15-11.75C335,172.4,319.25,167,301.48,163.66c-4.43-.89-9-1.56-13.71-2.2s-9.52-1.07-14.45-1.42-10-.55-15.09-.61c-2.57,0-5.16,0-7.78,0s-5.25-.05-7.91,0a257.48,257.48,0,0,0-32.85,2.73c-5.6.87-11.25,1.94-16.93,3.25s-11.35,3-17,4.92a141.64,141.64,0,0,0-16.67,7.14,99.11,99.11,0,0,0-15.56,10l-3.61,3-3.38,3.3-.84.83-.78.89-1.56,1.79c-.51.61-1,1.19-1.55,1.81l-1.4,1.93a70.58,70.58,0,0,0-5.15,8.09l-2.07,4.37c-.17.37-.36.73-.5,1.11l-.42,1.14-.82,2.29a62.36,62.36,0,0,0-3.66,19.19,197.48,197.48,0,0,0,.83,20q.87,10.05,2.5,20.16a163.59,163.59,0,0,0,4.23,20.12A108.33,108.33,0,0,0,140,328.63c6.45,9.3,14.54,17.47,24.34,22.62,4.81,2.71,9.67,5.25,14.64,7.43a63.72,63.72,0,0,0,15.3,4.84,22.93,22.93,0,0,0,7.84,0,12.19,12.19,0,0,0,3.63-1.29,10.3,10.3,0,0,0,3-2.38c3.13-4.15,6.12-8.4,9.13-12.51l0,0a12,12,0,0,1,3.22-3.53,16.72,16.72,0,0,1,4.13-2.29,25.94,25.94,0,0,1,9.14-1.68h31.33c1.45,0,2.9-.07,4.34.08a24.61,24.61,0,0,1,8.32,2,14.18,14.18,0,0,1,6.38,5.42l0,0q3.25,4.48,6.43,8.89c.54.73,1.06,1.46,1.59,2.19l.79,1.09.88,1a11.32,11.32,0,0,0,4.47,2.65,21.5,21.5,0,0,0,10.27.28,55.59,55.59,0,0,0,9.8-2.78,136,136,0,0,0,17.73-8.44l4.13-2.34c.68-.39,1.33-.82,2-1.23s1.32-.81,1.93-1.29c1.25-.91,2.5-1.79,3.64-2.8.59-.48,1.17-1,1.74-1.46l1.65-1.54a83.57,83.57,0,0,0,11.19-13.26,97.43,97.43,0,0,0,8-14,109,109,0,0,0,5.47-13.86c.35-1.14.73-2.25,1-3.36s.6-2.23.89-3.33c.63-2.18,1-4.36,1.47-6.46a277.63,277.63,0,0,0,4.95-39.62c.21-4.61.23-8.14.2-10.53,0-1.18-.05-2.08-.06-2.69Z" style="fill:#fff"></path><path d="M398.2,231.41c-1.63-14.67-6.61-28.71-15.66-40.47-8.33-10.84-19.25-19.35-31.31-25.7A158.72,158.72,0,0,0,314,151.66a243.42,243.42,0,0,0-35.3-5.55c-7.91-.69-15.85-1.05-23.78-1-5.33,0-10.66-.05-16,.12a269.84,269.84,0,0,0-30.58,2.71,199.48,199.48,0,0,0-36.28,8.52c-12.56,4.31-24.78,10.09-35.36,18.18-10.92,8.37-20.1,19-25.62,31.67a79.22,79.22,0,0,0-6.7,31.94c0,7.51.46,15,1.16,22.47a280.13,280.13,0,0,0,5.34,35.66c4.58,20.18,13.78,40,28.08,55.17a72,72,0,0,0,17.78,13.76,139.29,139.29,0,0,0,20,8.92c19.39,7,40.13,10.13,60.67,10.78,12.2.38,24.48.16,36.67-.48a257.62,257.62,0,0,0,28-2.84,114.37,114.37,0,0,0,33.55-10.41c3.68-1.86,7.21-4,10.73-6.11a82,82,0,0,0,16.17-12.36c14.44-14.66,23.83-34.19,28.72-54C394.17,287.11,395.74,275,397,263c.8-7.87,1.32-15.79,1.38-23.7,0-2.64,0-5.3-.15-7.93-.17-2.39-2-4.71-4.59-4.59-2.35.1-4.78,2-4.6,4.59.74,10.48-.17,21.22-1.23,31.63q-.4,3.94-.91,7.88l-.12.95c0,.17-.15,1.18-.06.47l-.27,2c-.21,1.52-.44,3-.67,4.56-.94,6-2,12.05-3.44,18a131,131,0,0,1-5.13,16.06c-.25.64-.51,1.27-.77,1.9,0,.11-.34.81-.06.15-.12.28-.24.55-.35.83-.53,1.22-1.08,2.43-1.65,3.64q-1.67,3.49-3.55,6.88a104.9,104.9,0,0,1-7.63,11.82c-.2.26-1,1.33-.44.58l-.93,1.18c-.73.91-1.48,1.8-2.24,2.68q-2,2.32-4.22,4.49c-1.37,1.36-2.8,2.67-4.28,3.91-.36.31-.73.61-1.1.91s-1.12.84-.3.24c-.74.54-1.46,1.08-2.21,1.6-2,1.37-4.11,2.59-6.18,3.84-3.49,2.12-7,4.19-10.65,6-1,.49-2,1-3,1.43l-1.53.68c-.35.15-1.3.5.17-.07l-.94.39c-2.38,1-4.81,1.83-7.26,2.61a133,133,0,0,1-19,4.33l-2.79.42-1.35.19c1.26-.18-.5.06-.86.1-2.2.28-4.41.52-6.62.74-4.87.47-9.76.8-14.65,1-12,.57-24.08.79-36.08.38-5.82-.21-11.64-.62-17.42-1.27-1.31-.15-2.61-.31-3.91-.48l-1-.14-2.22-.33q-3.74-.57-7.46-1.29a172.3,172.3,0,0,1-25.75-7q-2.68-1-5.32-2.05c-.43-.18-.9-.32-1.31-.54.9.47.12.05-.31-.14l-2.47-1.09c-2.93-1.34-5.82-2.79-8.64-4.37-1.29-.71-2.57-1.45-3.82-2.24-.7-.45-1.4-.91-2.08-1.39l-1-.7-.61-.46c-.68-.5.51.42.07.06a83.66,83.66,0,0,1-8.67-8.06c-1.39-1.52-2.74-3.09-4-4.7-.19-.25-.38-.5-.58-.74-.43-.53.43.58,0,0l-1-1.38c-.69-.94-1.37-1.9-2-2.87a109.88,109.88,0,0,1-7.35-12.47c-1.19-2.37-2.31-4.77-3.34-7.21.31.73-.36-.86-.41-1-.23-.57-.45-1.13-.67-1.7-.5-1.3-1-2.6-1.44-3.92a132.11,132.11,0,0,1-4.62-16.6c-1.27-6.09-2.22-12.26-3.07-18.42,0-.32-.09-.65-.14-1,0,.21.1.72,0-.23-.09-.63-.17-1.26-.25-1.89-.17-1.38-.33-2.75-.49-4.12q-.42-3.8-.75-7.61c-.61-7-1-14-1-21.05,0-1.67,0-3.34.11-5,0-.32,0-.63.05-.94s0-.39.06-.58a14.2,14.2,0,0,1,.18-1.46c-.23,1.12,0-.12.09-.55a79.37,79.37,0,0,1,2.4-10.77q.72-2.41,1.61-4.79a11.14,11.14,0,0,0,1-2.44c0,.08-.44,1-.12.3.08-.18.15-.36.23-.53.19-.44.39-.88.59-1.31a70.82,70.82,0,0,1,4.75-8.62c.89-1.39,1.84-2.76,2.83-4.08.22-.29.43-.6.66-.88-.62.74-.23.3.13-.14.51-.64,1-1.28,1.56-1.9a79.7,79.7,0,0,1,6.7-6.93c1.16-1.07,2.36-2.1,3.58-3.11.59-.49,1.2-1,1.8-1.44s-.76.57-.28.22l.54-.41c.36-.27.72-.54,1.09-.8a107.27,107.27,0,0,1,16.35-9.78c1.44-.7,2.88-1.37,4.34-2,.71-.31,1.42-.64,2.14-.92-1.3.52-.16.06.16-.07l1.27-.51c3-1.2,6-2.3,9.09-3.31a184.14,184.14,0,0,1,18.18-4.94c5.74-1.26,11.54-2.29,17.36-3.1l.58-.08.45-.06,2.22-.28c1.29-.16,2.58-.3,3.87-.44q3.81-.41,7.65-.7c7.36-.57,14.76-.85,22.14-.76,5.41.06,10.82-.05,16.23.15q6.8.24,13.58.83c2.59.23,5.17.49,7.75.8,1.36.16,2.72.38,4.08.51-1.74-.16.56.08,1,.15l2.29.34a196,196,0,0,1,35.76,8.72c1.5.53,3,1.09,4.48,1.67.72.28,1.44.56,2.16.86a6.57,6.57,0,0,1,1.13.47c-.05,0-1.05-.45-.34-.15l.76.33q4.4,1.89,8.63,4.12t8.26,4.79c1.33.85,2.65,1.74,3.94,2.66.63.45,1.25.9,1.86,1.36a7.1,7.1,0,0,1,.87.66c-.93-1,0,0,.35.28a83.89,83.89,0,0,1,7.18,6.4c1.12,1.12,2.21,2.28,3.26,3.46.51.58,1,1.17,1.51,1.76l.78,1c.14.17.93,1.21.49.61l.47.63.65.88c.48.67,1,1.35,1.42,2,.93,1.39,1.81,2.8,2.64,4.25s1.59,2.89,2.31,4.37c.36.73.7,1.46,1,2.21a9.82,9.82,0,0,0,.46,1.05c-.69-1.12,0,.12.2.52a76.1,76.1,0,0,1,3.1,9.67q.62,2.51,1.07,5c.16.9.31,1.79.44,2.69a4.48,4.48,0,0,1,.09.64c0-1.05-.07-.55,0-.25.07.54.13,1.09.19,1.63.27,2.38,1.93,4.71,4.6,4.59C395.87,235.9,398.48,234,398.2,231.41Z" style="fill:#263238"></path><path d="M230.84,350.48c.14,0,.14.66.69,1.58a3.69,3.69,0,0,0,3.81,1.64c4.11-.14,9.78-.23,16-.23s11.94.09,16.05.23a3.69,3.69,0,0,0,3.81-1.64c.55-.92.55-1.59.69-1.58s.31.68-.15,1.86a3.89,3.89,0,0,1-1.45,1.74,4.43,4.43,0,0,1-1.34.59,5.3,5.3,0,0,1-.8.1l-.76,0c-4.11.14-9.78.23-16.05.23s-11.94-.09-16-.23l-.75,0a5.27,5.27,0,0,1-.81-.1,4.43,4.43,0,0,1-1.34-.59,3.89,3.89,0,0,1-1.45-1.74C230.53,351.16,230.77,350.46,230.84,350.48Zm.15,9a3.91,3.91,0,0,0,1.45,1.75,4.18,4.18,0,0,0,1.34.58,4.27,4.27,0,0,0,.81.11l.75,0c4.11.14,9.78.23,16,.23s11.94-.09,16.05-.23l.76,0a4.28,4.28,0,0,0,.8-.11,4.18,4.18,0,0,0,1.34-.58,3.91,3.91,0,0,0,1.45-1.75c.46-1.17.22-1.87.15-1.85s-.14.66-.69,1.57a3.68,3.68,0,0,1-3.81,1.65c-4.11-.15-9.78-.23-16.05-.23s-11.94.08-16,.23a3.68,3.68,0,0,1-3.81-1.65c-.55-.91-.55-1.59-.69-1.57S230.53,358.31,231,359.48Zm0,7.15a3.89,3.89,0,0,0,1.45,1.74,4.2,4.2,0,0,0,1.34.59,5.27,5.27,0,0,0,.81.11l.75,0c4.11.14,9.78.22,16,.22s11.94-.08,16.05-.22l.76,0a5.31,5.31,0,0,0,.8-.11,4.2,4.2,0,0,0,1.34-.59,3.89,3.89,0,0,0,1.45-1.74c.46-1.18.22-1.87.15-1.86s-.14.67-.69,1.58a3.66,3.66,0,0,1-3.81,1.64c-4.11-.14-9.78-.23-16.05-.23s-11.94.09-16,.23a3.66,3.66,0,0,1-3.81-1.64c-.55-.91-.55-1.59-.69-1.58S230.53,365.45,231,366.63Z" style="fill:#263238"></path><path d="M121.12,202.6a3,3,0,1,1-3-3A3,3,0,0,1,121.12,202.6Z" style="fill:#455a64"></path><circle cx="126.35" cy="326.3" r="3.01" style="fill:#455a64"></circle><path d="M113.41,265.15a3,3,0,1,1-3-3A3,3,0,0,1,113.41,265.15Z" style="fill:#455a64"></path><path d="M196.81,374.57a3,3,0,1,1-3-3A3,3,0,0,1,196.81,374.57Z" style="fill:#455a64"></path><path d="M308.89,376a3,3,0,1,1-3-3A3,3,0,0,1,308.89,376Z" style="fill:#455a64"></path><path d="M395.12,265.15a3,3,0,1,1-3-3A3,3,0,0,1,395.12,265.15Z" style="fill:#455a64"></path><path d="M378.29,327.72a3,3,0,1,1-3-3A3,3,0,0,1,378.29,327.72Z" style="fill:#455a64"></path><path d="M173.12,162.14a3,3,0,1,1-3-3A3,3,0,0,1,173.12,162.14Z" style="fill:#455a64"></path><path d="M249.38,149.86a3,3,0,1,1-3-3A3,3,0,0,1,249.38,149.86Z" style="fill:#455a64"></path><path d="M327.68,159.21a3,3,0,1,1-3-3A3,3,0,0,1,327.68,159.21Z" style="fill:#455a64"></path><path d="M388,203.54a3,3,0,1,1-3-3A3,3,0,0,1,388,203.54Z" style="fill:#455a64"></path><path d="M243.37,167.2s-51.53.66-90.43,23.33c-23.21,13.53-26.86,26.31-26.59,43.85s4.86,72.74,24.3,90.33,59.11-15.2,71.31-26.26,19-29.48,21.41-49.19C246.38,224.85,243.37,167.2,243.37,167.2Z" style="fill:#fff;opacity:0.2"></path><path d="M129.51,217.1a1.5,1.5,0,1,0,1.49-1.62A1.57,1.57,0,0,0,129.51,217.1Z" style="fill:#e0e0e0"></path><path d="M191.58,209.19a1.63,1.63,0,1,0-1.49-1.62A1.56,1.56,0,0,0,191.58,209.19Z" style="fill:#e0e0e0"></path><path d="M147.55,216a1.15,1.15,0,1,0,1.06,1.15A1.11,1.11,0,0,0,147.55,216Z" style="fill:#e0e0e0"></path><path d="M173.91,235.11a.85.85,0,0,0,0,1.69.85.85,0,0,0,0-1.69Z" style="fill:#e0e0e0"></path><path d="M173.91,215.77a.84.84,0,1,0,.78.84A.8.8,0,0,0,173.91,215.77Z" style="fill:#e0e0e0"></path><path d="M155.11,234a.25.25,0,1,0-.24.27A.26.26,0,0,0,155.11,234Z" style="fill:#e0e0e0"></path><path d="M189.84,237.66a.26.26,0,0,0,.25.27.27.27,0,0,0,0-.54A.26.26,0,0,0,189.84,237.66Z" style="fill:#e0e0e0"></path><path d="M198.84,236.77a.25.25,0,1,0,.25-.27A.26.26,0,0,0,198.84,236.77Z" style="fill:#e0e0e0"></path><path d="M155.11,243.33a.27.27,0,1,0-.24-.27A.26.26,0,0,0,155.11,243.33Z" style="fill:#e0e0e0"></path><path d="M157.72,209.73a.5.5,0,1,0,.49-.54A.52.52,0,0,0,157.72,209.73Z" style="fill:#e0e0e0"></path><path d="M160.26,209.19a.52.52,0,0,0,.5.54.54.54,0,0,0,0-1.08A.52.52,0,0,0,160.26,209.19Z" style="fill:#e0e0e0"></path><path d="M168.49,177.71a.53.53,0,0,0,.5.55.53.53,0,0,0,.5-.55.52.52,0,0,0-.5-.54A.52.52,0,0,0,168.49,177.71Z" style="fill:#e0e0e0"></path><path d="M187.48,178.26a.5.5,0,1,0,1,0,.5.5,0,1,0-1,0Z" style="fill:#e0e0e0"></path><path d="M175.18,213.24a.53.53,0,0,0-.49.55.5.5,0,1,0,1,0A.53.53,0,0,0,175.18,213.24Z" style="fill:#e0e0e0"></path><path d="M189,176.63a.5.5,0,1,0-.5.54A.52.52,0,0,0,189,176.63Z" style="fill:#e0e0e0"></path><ellipse cx="147.55" cy="229.1" rx="1.05" ry="1.15" style="fill:#e0e0e0"></ellipse><path d="M145,267.59a1.56,1.56,0,1,0,1.55-1.69A1.62,1.62,0,0,0,145,267.59Z" style="fill:#e0e0e0"></path><path d="M373.49,226.13a1.7,1.7,0,1,0,1.55,1.69A1.62,1.62,0,0,0,373.49,226.13Z" style="fill:#e0e0e0"></path><path d="M273.77,228a1.7,1.7,0,1,0,1.55,1.7A1.63,1.63,0,0,0,273.77,228Z" style="fill:#e0e0e0"></path><ellipse cx="182.75" cy="223.45" rx="0.81" ry="0.88" style="fill:#e0e0e0"></ellipse><path d="M192.64,235.11a.54.54,0,0,0,.51-.56.52.52,0,1,0-1,0A.54.54,0,0,0,192.64,235.11Z" style="fill:#e0e0e0"></path><path d="M211.88,235.11a.52.52,0,1,0,.52-.56A.54.54,0,0,0,211.88,235.11Z" style="fill:#e0e0e0"></path><path d="M148.12,202.75a.55.55,0,0,0-.52.56.55.55,0,0,0,.52.57.55.55,0,0,0,.52-.57A.54.54,0,0,0,148.12,202.75Z" style="fill:#e0e0e0"></path><path d="M213.43,233.42a.52.52,0,1,0-.52.56A.54.54,0,0,0,213.43,233.42Z" style="fill:#e0e0e0"></path><path d="M184.07,233.42a.52.52,0,1,0,.52-.56A.54.54,0,0,0,184.07,233.42Z" style="fill:#e0e0e0"></path><path d="M138.24,210.75a.55.55,0,0,0,.52.56.54.54,0,0,0,.52-.56.55.55,0,0,0-.52-.57A.55.55,0,0,0,138.24,210.75Z" style="fill:#e0e0e0"></path><path d="M176,226.61a.57.57,0,1,0-.52-.56A.54.54,0,0,0,176,226.61Z" style="fill:#e0e0e0"></path><path d="M225,215.47a.52.52,0,1,0,1,0,.52.52,0,1,0-1,0Z" style="fill:#e0e0e0"></path><path d="M176.65,197a.52.52,0,1,0,1,0,.52.52,0,1,0-1,0Z" style="fill:#e0e0e0"></path><path d="M179.26,177.19a1.4,1.4,0,0,0-2.1-.2,1.73,1.73,0,0,0-.18,2.29,1.4,1.4,0,0,0,2.1.2A1.73,1.73,0,0,0,179.26,177.19Z" style="fill:#e0e0e0"></path><path d="M195.51,179.69a1.73,1.73,0,0,0-.18,2.29,1.4,1.4,0,0,0,2.1.2,1.73,1.73,0,0,0,.18-2.29A1.4,1.4,0,0,0,195.51,179.69Z" style="fill:#e0e0e0"></path><path d="M275.21,182.07a1.42,1.42,0,0,0-2.1-.2,1.73,1.73,0,0,0-.18,2.29,1.4,1.4,0,0,0,2.1.2A1.73,1.73,0,0,0,275.21,182.07Z" style="fill:#e0e0e0"></path><path d="M287.54,170.77a1,1,0,0,0-1.48-.14,1.21,1.21,0,0,0-.13,1.62,1,1,0,0,0,1.48.14A1.21,1.21,0,0,0,287.54,170.77Z" style="fill:#e0e0e0"></path><path d="M309.93,203a1.21,1.21,0,0,0-.13,1.62,1,1,0,0,0,1.48.14,1.21,1.21,0,0,0,.13-1.62A1,1,0,0,0,309.93,203Z" style="fill:#e0e0e0"></path><path d="M254.5,200.42a.9.9,0,0,0,.1-1.19.73.73,0,0,0-1.09-.11.9.9,0,0,0-.1,1.19A.73.73,0,0,0,254.5,200.42Z" style="fill:#e0e0e0"></path><path d="M245.42,213.68a.89.89,0,0,0-.09,1.19.73.73,0,0,0,1.09.11.91.91,0,0,0,.09-1.2A.73.73,0,0,0,245.42,213.68Z" style="fill:#e0e0e0"></path><path d="M288.29,206.73a.57.57,0,0,0,.06-.76.47.47,0,0,0-.7-.07.57.57,0,0,0-.06.76A.47.47,0,0,0,288.29,206.73Z" style="fill:#e0e0e0"></path><path d="M295.41,216.81a.57.57,0,0,0,.06-.76.47.47,0,0,0-.7-.07.59.59,0,0,0-.06.77A.46.46,0,0,0,295.41,216.81Z" style="fill:#e0e0e0"></path><path d="M288.62,218.79a.58.58,0,0,0,.06-.76.47.47,0,0,0-.7-.07.58.58,0,0,0-.06.77A.46.46,0,0,0,288.62,218.79Z" style="fill:#e0e0e0"></path><path d="M281.43,213a.28.28,0,0,0,0,.38.23.23,0,0,0,.35,0,.29.29,0,0,0,0-.38A.24.24,0,0,0,281.43,213Z" style="fill:#e0e0e0"></path><path d="M261.26,221.6a.28.28,0,0,0,0,.38.23.23,0,0,0,.35,0,.29.29,0,0,0,0-.38A.24.24,0,0,0,261.26,221.6Z" style="fill:#e0e0e0"></path><path d="M265.1,216a.28.28,0,0,0,0,.38.23.23,0,0,0,.35,0,.29.29,0,0,0,0-.38A.24.24,0,0,0,265.1,216Z" style="fill:#e0e0e0"></path><path d="M286.89,213.78a.3.3,0,0,0,0,.39.24.24,0,0,0,.35,0,.28.28,0,0,0,0-.38A.23.23,0,0,0,286.89,213.78Z" style="fill:#e0e0e0"></path><path d="M257.5,231.52a.28.28,0,0,0,0-.38.23.23,0,0,0-.35,0,.3.3,0,0,0,0,.38A.24.24,0,0,0,257.5,231.52Z" style="fill:#e0e0e0"></path><path d="M280.3,208a.58.58,0,0,0-.07.76.48.48,0,0,0,.71.07.58.58,0,0,0,.06-.76A.47.47,0,0,0,280.3,208Z" style="fill:#e0e0e0"></path><path d="M186,198.81a.58.58,0,0,0-.06.77.46.46,0,0,0,.7.06.58.58,0,0,0,.06-.76A.47.47,0,0,0,186,198.81Z" style="fill:#e0e0e0"></path><path d="M221.39,217.5a.57.57,0,0,0-.06.76.47.47,0,0,0,.7.07.57.57,0,0,0,.06-.76A.47.47,0,0,0,221.39,217.5Z" style="fill:#e0e0e0"></path><path d="M214.11,193a.57.57,0,0,0,.06-.76.47.47,0,0,0-.7-.07.57.57,0,0,0-.06.76A.47.47,0,0,0,214.11,193Z" style="fill:#e0e0e0"></path><path d="M200.22,232.81a.58.58,0,0,0-.06.77.47.47,0,0,0,.7.06.57.57,0,0,0,.06-.76A.47.47,0,0,0,200.22,232.81Z" style="fill:#e0e0e0"></path><path d="M154.94,224.64a.53.53,0,0,0-.54.49.53.53,0,0,0,.46.59.5.5,0,0,0,.53-.49A.52.52,0,0,0,154.94,224.64Z" style="fill:#e0e0e0"></path><path d="M293.91,179.55a1.09,1.09,0,0,0-1.15,1,1.13,1.13,0,0,0,1,1.25,1.09,1.09,0,0,0,1.14-1.05A1.11,1.11,0,0,0,293.91,179.55Z" style="fill:#e0e0e0"></path><path d="M226.82,206.18a1.46,1.46,0,0,0-2.18-.21,1.79,1.79,0,0,0-.19,2.38,1.47,1.47,0,0,0,2.19.21A1.79,1.79,0,0,0,226.82,206.18Z" style="fill:#e0e0e0"></path><path d="M324.48,211.05a1.8,1.8,0,0,0-.19,2.39,1.47,1.47,0,0,0,2.19.2,1.8,1.8,0,0,0,.19-2.38A1.47,1.47,0,0,0,324.48,211.05Z" style="fill:#e0e0e0"></path><path d="M338,199.36a1.27,1.27,0,0,0-.13,1.68,1,1,0,0,0,1.55.15,1.28,1.28,0,0,0,.13-1.69A1,1,0,0,0,338,199.36Z" style="fill:#e0e0e0"></path><path d="M300.53,226.27a1,1,0,0,0-.1,1.24.76.76,0,0,0,1.14.1.93.93,0,0,0,.1-1.23A.76.76,0,0,0,300.53,226.27Z" style="fill:#e0e0e0"></path><path d="M375.4,246.06a.32.32,0,0,0,0-.4.25.25,0,0,0-.37,0,.3.3,0,0,0,0,.4A.25.25,0,0,0,375.4,246.06Z" style="fill:#e0e0e0"></path><path d="M355.08,208.23a.24.24,0,0,0-.36,0,.31.31,0,0,0,0,.4.25.25,0,0,0,.37,0A.3.3,0,0,0,355.08,208.23Z" style="fill:#e0e0e0"></path><path d="M316.14,246.52a.3.3,0,0,0,0,.4.25.25,0,0,0,.37,0,.3.3,0,0,0,0-.4A.26.26,0,0,0,316.14,246.52Z" style="fill:#e0e0e0"></path><path d="M360.46,215.21a.3.3,0,0,0,0,.4.24.24,0,0,0,.36,0,.28.28,0,0,0,0-.39A.24.24,0,0,0,360.46,215.21Z" style="fill:#e0e0e0"></path><path d="M233.83,228.68a.59.59,0,0,0-.06.79.49.49,0,0,0,.73.07.6.6,0,0,0,.06-.79A.49.49,0,0,0,233.83,228.68Z" style="fill:#e0e0e0"></path><path d="M227.66,187.72a.61.61,0,0,0,.07-.8.49.49,0,0,0-.73-.07.61.61,0,0,0-.07.8A.49.49,0,0,0,227.66,187.72Z" style="fill:#e0e0e0"></path><path d="M236.92,179.24a.59.59,0,0,0-.06.79.49.49,0,0,0,.73.07.62.62,0,0,0,.06-.8A.5.5,0,0,0,236.92,179.24Z" style="fill:#e0e0e0"></path><path d="M275.92,172.38a.6.6,0,0,0-.06.79.49.49,0,0,0,.73.07.6.6,0,0,0,.06-.79A.49.49,0,0,0,275.92,172.38Z" style="fill:#e0e0e0"></path><path d="M262.42,221.81a.59.59,0,0,0-.06.79.49.49,0,0,0,.73.07.6.6,0,0,0,.06-.79A.49.49,0,0,0,262.42,221.81Z" style="fill:#e0e0e0"></path><path d="M177.79,237.78a.55.55,0,0,0,.47.61.52.52,0,0,0,.56-.51.55.55,0,0,0-.47-.61A.53.53,0,0,0,177.79,237.78Z" style="fill:#e0e0e0"></path><path d="M344.93,209.72a1.18,1.18,0,0,0,1,1.3,1.14,1.14,0,0,0,1.19-1.09,1.18,1.18,0,0,0-1-1.3A1.14,1.14,0,0,0,344.93,209.72Z" style="fill:#e0e0e0"></path><path d="M334.48,233.64a1.79,1.79,0,0,0-.57,2.31,1.48,1.48,0,0,0,2.12.62,1.76,1.76,0,0,0,.57-2.31A1.49,1.49,0,0,0,334.48,233.64Z" style="fill:#e0e0e0"></path><path d="M340.86,261.37a.28.28,0,0,0,.15.35.24.24,0,0,0,.32-.17.28.28,0,0,0-.15-.34A.25.25,0,0,0,340.86,261.37Z" style="fill:#e0e0e0"></path><path d="M355.13,244.27a.24.24,0,0,0,.32-.16.27.27,0,0,0-.15-.35.25.25,0,0,0-.32.16A.29.29,0,0,0,355.13,244.27Z" style="fill:#e0e0e0"></path><path d="M359,256.48a.57.57,0,0,0,.3.7.5.5,0,0,0,.64-.33.55.55,0,0,0-.3-.69A.49.49,0,0,0,359,256.48Z" style="fill:#e0e0e0"></path><path d="M374.77,252a.51.51,0,0,0,.67-.34.6.6,0,0,0-.31-.72.52.52,0,0,0-.67.34A.58.58,0,0,0,374.77,252Z" style="fill:#e0e0e0"></path><path d="M362.69,277.12a.57.57,0,0,0,.31.72.5.5,0,0,0,.66-.33.58.58,0,0,0-.31-.73A.51.51,0,0,0,362.69,277.12Z" style="fill:#e0e0e0"></path><path d="M175.71,252.55c-1.1.57-2.37,1.23-3.76,2.09l-4.7,2.77c-1.7,1.06-3.51,2.3-5.51,3.6a163.75,163.75,0,0,0-13.06,9.9c-1.2,1-2.33,2.07-3.56,3.14s-2.49,2.16-3.67,3.39l-3.72,3.7c-1.29,1.25-2.46,2.66-3.74,4-2.12,2.36-4.26,4.87-6.39,7.54q.9,3.3,1.94,6.47l7.5-9.6a36,36,0,0,1,5.2-5.76,8.64,8.64,0,0,0,.92-.8,10,10,0,0,0,.81-1,36,36,0,0,1,11.31-9.94l.12-.06a7.51,7.51,0,0,1,1.1-.71l1.75-.57-3.06,4.14a5.61,5.61,0,0,0-1.34,2.77,1.86,1.86,0,0,1-.26,1.15c-.32.35-1,.32-1.24.7a1.48,1.48,0,0,0-.21.72,4.68,4.68,0,0,1-2.48,3.5,1.8,1.8,0,0,1,.07,1.51l-.54,2.17A3.52,3.52,0,0,1,150,286a7.29,7.29,0,0,1,1.3-.89c1.28-.83,2.7-1.2,3.08-2.67.06-.23.12-.47.19-.71a7.47,7.47,0,0,0-1.81,1.78c-.28.39-.72.87-1.15.65.25-.47.51-.94.81-1.39a6.29,6.29,0,0,1,2.6-2.44,5.57,5.57,0,0,1,2.6-3.29c.73-.36,1.57-.48,2.33-.8a10.64,10.64,0,0,0,3.69-3.32A32.8,32.8,0,0,1,180.4,262a56.82,56.82,0,0,1,11.44-1.31c1.06-.05,2.46.13,2.69,1.16a39.73,39.73,0,0,0-10.94,4.85c-2.66,1.69-5,5.12-8.28,5-.52,0-1-.82-1.54-.61-.93.36-1.24,3.45-.62,3.39-2.24.2-3.62,2-4.45,3.91s-1.62,4.19-3.59,5c-1.31.53-2.79.24-4.21.27s-3.05.62-3.37,2c-.5,2.07,2.38,4.26,1.83,6a.65.65,0,0,1,.4.65,1.84,1.84,0,0,1-.32.81l-1.26,2.11c.06,1.1-1,1.9-1.56,2.86a3.12,3.12,0,0,0-.25,2.36,1.39,1.39,0,0,1,1.64.12,2.3,2.3,0,0,1-.48,1.65,2.76,2.76,0,0,0,.49.32,3.39,3.39,0,0,0,4.43-1.59,5.74,5.74,0,0,1,.79-1.74,3.13,3.13,0,0,1,1.75-.72l3.95-.74,1.29-4.68c.31-1.14.75-2.43,1.87-2.86,1.53-.57,3.81.65,4.62-.74A4.82,4.82,0,0,1,174,285a6.53,6.53,0,0,1,.64-2.77l-.27.22a5.55,5.55,0,0,1-3.19,1.29,3.46,3.46,0,0,1-2.79-1.45,1.48,1.48,0,0,1-.32-.87,1.92,1.92,0,0,1,.19-.66,15.84,15.84,0,0,1,3.54-5.07,4.43,4.43,0,0,1,1.11-.82c1.27-.61,3-.13,4-1a5.73,5.73,0,0,1,.76-.64,2.85,2.85,0,0,1,1.95,0c.65.14,1.47.12,1.8-.45l.44.3a5.15,5.15,0,0,1-1.61,2.67c-.33.28-.69.52-1,.83a7.14,7.14,0,0,0-1,1.4c3.31-2.3,7.73-3.09,11.87-2.86a3.58,3.58,0,0,0,1.93-.24c.82-.44,1.1-1.45,1.69-2.16,1-1.18,2.76-1.39,4-2.29s1.79-2.08,2.71-3.11c2.59-2.9,6.86-3.53,10.77-4a5.73,5.73,0,0,1,3.21.26,25.6,25.6,0,0,1,2.06,1.58c3.11,2,7.16-1.33,10.81-.64a13.57,13.57,0,0,0,3.22.71,14.38,14.38,0,0,0,2.85-.93c2.46-.72,5.1.62,7,2.39s3.23,4,5.15,5.69a5,5,0,0,1,6.54,1.16,6.89,6.89,0,0,0,1.2,1.56,4.17,4.17,0,0,0,1.7.6l5.45,1.05a3.62,3.62,0,0,0,0,4,5.71,5.71,0,0,1,1.12,1.76c.38,1.61-1.76,2.89-1.64,4.53a9.08,9.08,0,0,0,.81,2.11c.94,2.85-2.69,5.43-2.36,8.4-2,.34-4-.71-6-1.14s-4.67.18-5,2.17c.07.72,1,1.1,1.69,1a12.06,12.06,0,0,0,2-.78,4.61,4.61,0,0,1,5.58,2.91,5.3,5.3,0,0,1-2.42,5.95,4.52,4.52,0,0,1-4.81,0L245.15,310c-4.3-.4-7.46-5.88-11.64-4.85a4.12,4.12,0,0,0-2.85,2.68c-10.52-5.53-5.31,16.07-7.67,31.29a25.56,25.56,0,0,1,9.95-2.67q1.8-.1,3.84,0h28.94c14.47-.57,20.13,6.54,20.13,6.54l8.49,12c3.17,3.87,8,4.87,13.65,4.15a.35.35,0,0,0-.05-.08,2.51,2.51,0,0,1,.58-3.07,2.61,2.61,0,0,1,3.19,0c1-.84,1.24-2.17,1.77-3.31s1.67-2.27,2.91-1.95c.71.19,1.27.83,2,.9s1.52-.6,2.18-1.1a7,7,0,0,1,8.6.31,6.26,6.26,0,0,1,.5.53c3.53-1.79,7-3.7,10.21-5.53a50.51,50.51,0,0,0,8.87-6.57c-.25-.12-.51-.24-.77-.34a20.06,20.06,0,0,0,1.72-3.32,4.75,4.75,0,0,1,2.6-2.59,2.6,2.6,0,0,1,2.15.36c8.27-9.59,15.65-22.95,20.28-38.85a153.41,153.41,0,0,0-25.53-25.76,155.21,155.21,0,0,0-29.42-18.58,161.16,161.16,0,0,0-57.64-15.65,154.13,154.13,0,0,0-24.62,0c-1.88.18-3.73.25-5.52.51l-5.26.69c-1.72.19-3.36.58-5,.84s-3.19.54-4.7.9c-6.07,1.33-11.39,2.8-15.93,4.28-2.25.78-4.35,1.45-6.24,2.15l-5.09,2c-1.53.57-2.84,1.17-4,1.69L183,248.88c-1.52.69-2.31,1-2.31,1s-.75.42-2.23,1.19Zm62.55,60.09a7.49,7.49,0,0,1,2.41,0c2.75.54,4.44,3.21,5.8,5.64a7.82,7.82,0,0,1-.65,1.44A51.66,51.66,0,0,0,238.26,312.64ZM226,260.14a1.33,1.33,0,0,1-.23.46,6.14,6.14,0,0,1-8,1.6,8.36,8.36,0,0,1,6.84-3.76C225.35,258.77,226.24,259.37,226,260.14ZM332.7,298.43a2.23,2.23,0,0,1,1.77-2.46c.87,1,2.33,1.4,3.32,2.31a7.49,7.49,0,0,1,1.83,3.79,2.93,2.93,0,0,1-.09,2.51,5.31,5.31,0,0,1-1.56,1.06,4.13,4.13,0,0,0-1.45,4.72c.47,1.4,1.52,2.55,2.07,3.92s.32,3.28-1.07,3.82c-1.2.47-2.58-.34-3.84,0a13.92,13.92,0,0,1-1.68.59c-1.07.13-2-.74-2.7-1.54L327,314.57a10.08,10.08,0,0,1-2.23-3.22c-1.11-3.15,1.08-3.58,3.34-4.08,2.08-.46,3-1.43,4.14-3.41.11-.19,1.47-2.95,1.84-2.4A6.62,6.62,0,0,1,332.7,298.43Zm-14.31-45.7c.55.15,1,.48,1.56.68,1.2.46,2.6.28,3.75.86.4.21.76.5,1.14.75a5.93,5.93,0,0,0,3,.93,3.91,3.91,0,0,1,1.37.16,2.42,2.42,0,0,1,.87.69,7.76,7.76,0,0,1,1.49,2.5,9.55,9.55,0,0,1-4.57-1.71,6.78,6.78,0,0,0-1.39-.88,11,11,0,0,0-2.44-.32,8.94,8.94,0,0,1-3.29-1.44l-3-1.82A1.42,1.42,0,0,1,318.39,252.73Zm-3.79,66.5c-1.13,4.49-4.78,8-8.92,10.18A24.34,24.34,0,0,1,284,330c-6.74-3.35-11.48-10.63-11.12-18s6.18-14.35,13.61-15.53c9.94-3,20.16,2.83,24.93,9.48C314.13,309.76,315.75,314.67,314.6,319.23Zm-7.53-72.18a6.18,6.18,0,0,1,2.07.91l2.22,1.32a1.39,1.39,0,0,1,.72.71.94.94,0,0,1-.69,1.07,2.85,2.85,0,0,1-1.42,0,10.47,10.47,0,0,1-3.07-.91,3.48,3.48,0,0,1-1.89-2.43A2.13,2.13,0,0,1,307.07,247.05ZM296.9,265.93c.61.66.39,1.7.17,2.57s-.33,2,.4,2.51a2.49,2.49,0,0,0,1.5.33l2.4,0A3.91,3.91,0,0,1,304,272a2.49,2.49,0,0,1,.24,3.17,5.34,5.34,0,0,1-2.85,1.9,34,34,0,0,0-3.33,1.06c-1.64.74-2.95,2.06-4.6,2.78a4.28,4.28,0,0,1-1.36.36c-1.54.09-2.86-1-4-2.07a5.56,5.56,0,0,1-1.94-2.68c-.33-1.5.52-3.4-.65-4.43-.42.64-1.56.07-1.63-.68a2.82,2.82,0,0,1,1-2l2.55-2.73a5.73,5.73,0,0,1,1.81-1.48,4.94,4.94,0,0,1,1.75-.33,16.59,16.59,0,0,1,4.55.39A2.5,2.5,0,0,1,296.9,265.93Zm-1.44-4.87a8.17,8.17,0,0,1-3.32,1,12.8,12.8,0,0,0-2.7.25,7,7,0,0,0-1.25.56l-4.39,2.32c-.83-1.4-1.69-3-1.32-4.54a5.7,5.7,0,0,1,.77-1.66,28.27,28.27,0,0,1,4.57-5.61,5.59,5.59,0,0,1,2-1.35,2.25,2.25,0,0,1,2.29.41c1.28,1.31-.24,3.68.71,5.23a6.27,6.27,0,0,0,1.76,1.46C295.18,259.59,295.73,260.35,295.46,261.06Zm-98.07-3.12a8.29,8.29,0,0,1,8.48-5.5,7.63,7.63,0,0,0,2,.09c1.85-.32,2.79-2.47,4.54-3.13a6.11,6.11,0,0,1,2.63-.19l8.23.58a12.38,12.38,0,0,0,4.21-.18c1.46-.41,2.73-1.34,4.22-1.62a9.7,9.7,0,0,1,2.22-.09l3.5.12a14.63,14.63,0,0,1,6,1c2.24,1.08,4.06,3.34,6.55,3.35a8.07,8.07,0,0,0,4-1.52,92.85,92.85,0,0,1,11.36-5.72,7.05,7.05,0,0,1,2.53-.68,16,16,0,0,1,3.53.86c4.09.93,8.11-2.1,12.3-1.83a16,16,0,0,1,6.09,2.14l3.57,1.84a93.27,93.27,0,0,1-12.94,8.71,36.53,36.53,0,0,1-7.68,3.78,37,37,0,0,1-7,1.19c-2,.21-4.14.38-5.8-.73s-2-4-.22-4.83a1.36,1.36,0,0,1,.59-.12,2,2,0,0,1,1,.57,8.55,8.55,0,0,0,9.33.81,1.42,1.42,0,0,0,.7-.71,1.33,1.33,0,0,0-.33-1.14,7.93,7.93,0,0,0-7.11-2.95,11.31,11.31,0,0,0-6.95,3.63c-1,1-1.91,2.28-3.3,2.68s-3.27-.76-2.82-2.12c.21-.6.67-1.5,0-1.67a9.36,9.36,0,0,0-6.54.95,14.8,14.8,0,0,1-2.85,1.53,2.46,2.46,0,0,1-2.88-.88c-.17-.31-.23-.67-.4-1-.69-1.19-2.45-.92-3.83-.77-3.35.38-6.74-1-10.08-.48-6.26.9-10.47,7.87-16.81,8.05a3.3,3.3,0,0,1-2.65-.89,1.48,1.48,0,0,1,.47-2.35c.06-.67-1-.72-1.62-.5l-3.82,1.33c-.86.3-2.06.5-2.52-.29A1.75,1.75,0,0,1,197.39,257.94Z" style="fill:#f5f5f5"></path><path d="M223,339.09a27.11,27.11,0,0,0-9.55,8l-5.31,7.14a13.52,13.52,0,0,1-1.1,1.16,25.73,25.73,0,0,1-4,.92,10.85,10.85,0,0,1,1.56.82c-10,5.33-28.17-3.51-42-11.35-12.3-7-24.7-22.88-32.27-44.27l0,0h0c-.28-.77-.55-1.55-.81-2.33l7.5-9.6a36,36,0,0,1,5.2-5.76,8.64,8.64,0,0,0,.92-.8,10,10,0,0,0,.81-1,36,36,0,0,1,11.31-9.94l.12-.06a7.51,7.51,0,0,1,1.1-.71l1.75-.57-3.06,4.14a5.61,5.61,0,0,0-1.34,2.77,1.86,1.86,0,0,1-.26,1.15c-.32.35-1,.32-1.24.7a1.48,1.48,0,0,0-.21.72,4.68,4.68,0,0,1-2.48,3.5,1.8,1.8,0,0,1,.07,1.51l-.54,2.17A3.52,3.52,0,0,1,150,286a7.29,7.29,0,0,1,1.3-.89c1.28-.83,2.7-1.2,3.08-2.67.06-.23.12-.47.19-.71a7.47,7.47,0,0,0-1.81,1.78c-.28.39-.72.87-1.15.65.25-.47.51-.94.81-1.39a6.29,6.29,0,0,1,2.6-2.44,5.57,5.57,0,0,1,2.6-3.29c.73-.36,1.57-.48,2.33-.8a10.64,10.64,0,0,0,3.69-3.32A32.8,32.8,0,0,1,180.4,262a56.82,56.82,0,0,1,11.44-1.31c1.06-.05,2.46.13,2.69,1.16a39.73,39.73,0,0,0-10.94,4.85c-2.66,1.69-5,5.12-8.28,5-.52,0-1-.82-1.54-.61-.93.36-1.24,3.45-.62,3.39-2.24.2-3.62,2-4.45,3.91s-1.62,4.19-3.59,5c-1.31.53-2.79.24-4.21.27s-3.05.62-3.37,2c-.5,2.07,2.38,4.26,1.83,6a.65.65,0,0,1,.4.65,1.84,1.84,0,0,1-.32.81l-1.26,2.11c.06,1.1-1,1.9-1.56,2.86a3.12,3.12,0,0,0-.25,2.36,1.39,1.39,0,0,1,1.64.12,2.3,2.3,0,0,1-.48,1.65,2.76,2.76,0,0,0,.49.32,3.39,3.39,0,0,0,4.43-1.59,5.74,5.74,0,0,1,.79-1.74,3.13,3.13,0,0,1,1.75-.72l3.95-.74,1.29-4.68c.31-1.14.75-2.43,1.87-2.86,1.53-.57,3.81.65,4.62-.74A4.82,4.82,0,0,1,174,285a6.53,6.53,0,0,1,.64-2.77l-.27.22a5.55,5.55,0,0,1-3.19,1.29,3.46,3.46,0,0,1-2.79-1.45,1.48,1.48,0,0,1-.32-.87,1.92,1.92,0,0,1,.19-.66,15.84,15.84,0,0,1,3.54-5.07,4.43,4.43,0,0,1,1.11-.82c1.27-.61,3-.13,4-1a5.73,5.73,0,0,1,.76-.64,2.85,2.85,0,0,1,1.95,0c.65.14,1.47.12,1.8-.45l.44.3a5.15,5.15,0,0,1-1.61,2.67c-.33.28-.69.52-1,.83a7.14,7.14,0,0,0-1,1.4c3.31-2.3,7.73-3.09,11.87-2.86a3.58,3.58,0,0,0,1.93-.24c.82-.44,1.1-1.45,1.69-2.16,1-1.18,2.76-1.39,4-2.29s1.79-2.08,2.71-3.11c2.59-2.9,6.86-3.53,10.77-4a5.73,5.73,0,0,1,3.21.26,25.6,25.6,0,0,1,2.06,1.58c3.11,2,7.16-1.33,10.81-.64a13.57,13.57,0,0,0,3.22.71,14.38,14.38,0,0,0,2.85-.93c2.46-.72,5.1.62,7,2.39s3.23,4,5.15,5.69a5,5,0,0,1,6.54,1.16,6.89,6.89,0,0,0,1.2,1.56,4.17,4.17,0,0,0,1.7.6l5.45,1.05a3.62,3.62,0,0,0,0,4,5.71,5.71,0,0,1,1.12,1.76c.38,1.61-1.76,2.89-1.64,4.53a9.08,9.08,0,0,0,.81,2.11c.94,2.85-2.69,5.43-2.36,8.4-2,.34-4-.71-6-1.14s-4.67.18-5,2.17c.07.72,1,1.1,1.69,1a12.06,12.06,0,0,0,2-.78,4.61,4.61,0,0,1,5.58,2.91,5.3,5.3,0,0,1-2.42,5.95,4.52,4.52,0,0,1-4.81,0L245.15,310c-4.3-.4-7.46-5.88-11.64-4.85a4.12,4.12,0,0,0-2.85,2.68C220.14,302.27,225.35,323.87,223,339.09Zm23.48-20.8c-1.36-2.43-3.05-5.1-5.8-5.64a7.49,7.49,0,0,0-2.41,0,51.66,51.66,0,0,1,7.56,7.09A7.82,7.82,0,0,0,246.47,318.29Zm-21.86-59.85a8.36,8.36,0,0,0-6.84,3.76,6.14,6.14,0,0,0,8-1.6,1.33,1.33,0,0,0,.23-.46C226.24,259.37,225.35,258.77,224.61,258.44Zm-24.7,1.19,3.82-1.33c.64-.22,1.68-.17,1.62.5a1.48,1.48,0,0,0-.47,2.35,3.3,3.3,0,0,0,2.65.89c6.34-.18,10.55-7.15,16.81-8.05,3.34-.48,6.73.86,10.08.48,1.38-.15,3.14-.42,3.83.77.17.3.23.66.4,1a2.46,2.46,0,0,0,2.88.88,14.8,14.8,0,0,0,2.85-1.53,9.36,9.36,0,0,1,6.54-.95c.63.17.17,1.07,0,1.67-.45,1.36,1.43,2.52,2.82,2.12s2.31-1.64,3.3-2.68a11.31,11.31,0,0,1,6.95-3.63,7.93,7.93,0,0,1,7.11,2.95,1.33,1.33,0,0,1,.33,1.14,1.42,1.42,0,0,1-.7.71,8.55,8.55,0,0,1-9.33-.81,2,2,0,0,0-1-.57,1.36,1.36,0,0,0-.59.12c-1.81.8-1.43,3.72.22,4.83s3.83.94,5.8.73a37,37,0,0,0,7-1.19,36.53,36.53,0,0,0,7.68-3.78,93.27,93.27,0,0,0,12.94-8.71l-3.57-1.84a16,16,0,0,0-6.09-2.14c-4.19-.27-8.21,2.76-12.3,1.83a16,16,0,0,0-3.53-.86,7.05,7.05,0,0,0-2.53.68A92.85,92.85,0,0,0,254,250.9a8.07,8.07,0,0,1-4,1.52c-2.49,0-4.31-2.27-6.55-3.35a14.63,14.63,0,0,0-6-1l-3.5-.12a9.7,9.7,0,0,0-2.22.09c-1.49.28-2.76,1.21-4.22,1.62a12.38,12.38,0,0,1-4.21.18l-8.23-.58a6.11,6.11,0,0,0-2.63.19c-1.75.66-2.69,2.81-4.54,3.13a7.63,7.63,0,0,1-2-.09,8.29,8.29,0,0,0-8.48,5.5,1.75,1.75,0,0,0,0,1.4C197.85,260.13,199.05,259.93,199.91,259.63ZM352.3,333a4.75,4.75,0,0,0-2.6,2.59,20.06,20.06,0,0,1-1.72,3.32c.26.1.52.22.77.34a68.21,68.21,0,0,0,5.7-5.89A2.6,2.6,0,0,0,352.3,333Zm-59.5-75.31c-.95-1.55.57-3.92-.71-5.23a2.25,2.25,0,0,0-2.29-.41,5.59,5.59,0,0,0-2,1.35,28.27,28.27,0,0,0-4.57,5.61,5.7,5.7,0,0,0-.77,1.66c-.37,1.57.49,3.14,1.32,4.54l4.39-2.32a7,7,0,0,1,1.25-.56,12.8,12.8,0,0,1,2.7-.25,8.17,8.17,0,0,0,3.32-1c.27-.71-.28-1.47-.9-1.93A6.27,6.27,0,0,1,292.8,257.67ZM291,264.91a4.94,4.94,0,0,0-1.75.33,5.73,5.73,0,0,0-1.81,1.48l-2.55,2.73a2.82,2.82,0,0,0-1,2c.07.75,1.21,1.32,1.63.68,1.17,1,.32,2.93.65,4.43a5.56,5.56,0,0,0,1.94,2.68c1.13,1,2.45,2.16,4,2.07a4.28,4.28,0,0,0,1.36-.36c1.65-.72,3-2,4.6-2.78a34,34,0,0,1,3.33-1.06,5.34,5.34,0,0,0,2.85-1.9A2.49,2.49,0,0,0,304,272a3.91,3.91,0,0,0-2.64-.65l-2.4,0a2.49,2.49,0,0,1-1.5-.33c-.73-.55-.62-1.64-.4-2.51s.44-1.91-.17-2.57a2.5,2.5,0,0,0-1.33-.63A16.59,16.59,0,0,0,291,264.91Zm15.88-14.79A10.47,10.47,0,0,0,310,251a2.85,2.85,0,0,0,1.42,0,.94.94,0,0,0,.69-1.07,1.39,1.39,0,0,0-.72-.71L309.14,248a6.18,6.18,0,0,0-2.07-.91,2.13,2.13,0,0,0-2.06.64A3.48,3.48,0,0,0,306.9,250.12Zm16.22,6.27a11,11,0,0,1,2.44.32,6.78,6.78,0,0,1,1.39.88,9.55,9.55,0,0,0,4.57,1.71,7.76,7.76,0,0,0-1.49-2.5,2.42,2.42,0,0,0-.87-.69,3.91,3.91,0,0,0-1.37-.16,5.93,5.93,0,0,1-3-.93c-.38-.25-.74-.54-1.14-.75-1.15-.58-2.55-.4-3.75-.86-.53-.2-1-.53-1.56-.68a1.42,1.42,0,0,0-1.55.4l3,1.82A8.94,8.94,0,0,0,323.12,256.39Zm9.11,47.47c-1.15,2-2.06,2.95-4.14,3.41-2.26.5-4.45.93-3.34,4.08a10.08,10.08,0,0,0,2.23,3.22l2.32,2.55c.72.8,1.63,1.67,2.7,1.54a13.92,13.92,0,0,0,1.68-.59c1.26-.31,2.64.5,3.84,0,1.39-.54,1.61-2.45,1.07-3.82s-1.6-2.52-2.07-3.92a4.13,4.13,0,0,1,1.45-4.72,5.31,5.31,0,0,0,1.56-1.06,2.93,2.93,0,0,0,.09-2.51,7.49,7.49,0,0,0-1.83-3.79c-1-.91-2.45-1.28-3.32-2.31a2.23,2.23,0,0,0-1.77,2.46,6.62,6.62,0,0,0,1.37,3C333.7,300.91,332.34,303.67,332.23,303.86Zm-11.66,46.63c-.66.5-1.34,1.17-2.18,1.1s-1.29-.71-2-.9c-1.24-.32-2.38.81-2.91,1.95s-.82,2.47-1.77,3.31a2.61,2.61,0,0,0-3.19,0,2.51,2.51,0,0,0-.58,3.07.35.35,0,0,1,.05.08c6.62-.84,14.32-4.05,21.68-7.79a6.26,6.26,0,0,0-.5-.53A7,7,0,0,0,320.57,350.49Zm-34.13-54.07c-7.43,1.18-13.25,8.13-13.61,15.53s4.38,14.69,11.12,18a24.34,24.34,0,0,0,21.73-.58c4.14-2.18,7.79-5.69,8.92-10.18s-.47-9.47-3.23-13.33C306.6,299.25,296.38,293.43,286.44,296.42Z" style="fill:#e0e0e0"></path><path d="M146,201.84c5.73-5.19,17-12.35,24.13-15.42,36-15.64,66.29-18.17,102.19-13.94-.92-.1-28.66,3.32-43.43,7.06-19.21,4.85-37.09,9.74-56.66,19.36a98.84,98.84,0,0,0-22.73,15.37c-4.57,4-10.36,11.22-15.1,18.77C133.14,222.44,139.46,207.77,146,201.84Z" style="fill:#fff"></path><ellipse cx="319.2" cy="204.87" rx="15.67" ry="14.89" transform="translate(-42 320.61) rotate(-50.46)" style="fill:#8E5D52"></ellipse><g style="opacity:0.2"><path d="M306.26,200.29a10.19,10.19,0,0,0,4-.75c.31-.12.17-.57-.1-.59-1.19-.12-2.32-.26-3.53-.27l-1-.05c-.25.51-.47,1-.67,1.57A11.84,11.84,0,0,0,306.26,200.29Z"></path><path d="M307.63,202.72a23.11,23.11,0,0,0,9.45-1.81,26.91,26.91,0,0,0,8.32-5.46,23.42,23.42,0,0,0,2.91-3.33,13.67,13.67,0,0,0-1.31-.82,16.64,16.64,0,0,1-2.35,2.87A25.89,25.89,0,0,1,317.9,199a23.79,23.79,0,0,1-7.57,2.39,14.92,14.92,0,0,1-5.72-.09c-.09.33-.18.66-.25,1A13,13,0,0,0,307.63,202.72Z" style="fill:#fff"></path><path d="M314.52,193.44c1.5-.51,4.14-2.06,4.81-3.91-.53,0-1.06.07-1.58.14a2.29,2.29,0,0,1-.18.29,7.36,7.36,0,0,1-2.72,2.1,10.19,10.19,0,0,1-4.91,1.12l-.74.65C310.8,194.42,313.06,194,314.52,193.44Z" style="fill:#fff"></path><path d="M309.7,207.85a29.57,29.57,0,0,0,11.17-3.12,27.81,27.81,0,0,0,8.8-6.17,22.73,22.73,0,0,0,2.23-2.79,15.05,15.05,0,0,0-2.29-2.62,23,23,0,0,1-3.16,3.62,33.13,33.13,0,0,1-16.62,7.56,22.7,22.7,0,0,1-4.59,0c-.4,0-.79-.11-1.17-.17a15.23,15.23,0,0,0,0,3.24A19.67,19.67,0,0,0,309.7,207.85Z"></path><path d="M316.41,216.12a51.66,51.66,0,0,1-6.52,1.35,10.64,10.64,0,0,0,1,.66,46.16,46.16,0,0,0,14.62-4.39,50.92,50.92,0,0,0,8.13-4.75c.1-.3.19-.61.27-.92a49.76,49.76,0,0,1-8.5,4.86A58.27,58.27,0,0,1,316.41,216.12Z"></path><path d="M315.55,195.59a14.14,14.14,0,0,0,5.68-3.56,11.93,11.93,0,0,0,1.64-2.23c-.46-.09-.92-.16-1.39-.21a8.6,8.6,0,0,1-1.36,1.87,13,13,0,0,1-4.77,3.07,17.24,17.24,0,0,1-8,1.35c-.22.29-.44.59-.64.9C309.58,197.31,313.12,196.45,315.55,195.59Z" style="fill:#fff"></path><path d="M334.41,204.19a39.92,39.92,0,0,1-3.08,2.86,37.19,37.19,0,0,1-7,4.54,35.76,35.76,0,0,1-8.36,2.8,28.53,28.53,0,0,1-8.36,1c.23.26.48.52.73.77a28,28,0,0,0,6.38-.75,39.37,39.37,0,0,0,9.25-2.71,38,38,0,0,0,10.36-6.88c0-.05,0-.09,0-.14C334.38,205.17,334.41,204.68,334.41,204.19Z" style="fill:#fff"></path><path d="M323.43,210.62a39.14,39.14,0,0,0,10-6.78c.32-.3.63-.62.94-.93a15.06,15.06,0,0,0-1.53-5.53,25.31,25.31,0,0,1-3,3.33,34.86,34.86,0,0,1-8.62,5.67,30.15,30.15,0,0,1-10.18,3,24.7,24.7,0,0,1-5.64-.14c-.32,0-.65-.1-1-.16a14.46,14.46,0,0,0,2.28,5.12,24.16,24.16,0,0,0,4.17,0A35.55,35.55,0,0,0,323.43,210.62Z" style="fill:#fff"></path><path d="M320.79,194a28.13,28.13,0,0,1-3.14,2.22,21.82,21.82,0,0,0-3.75,1.69.61.61,0,0,0,.49,1.07,16,16,0,0,0,4.35-1.8,4.86,4.86,0,0,0,2.61-2.68C321.43,194.15,321.14,193.74,320.79,194Z"></path><path d="M323.14,217a4.52,4.52,0,0,0-.71.53c-.23.22,0,.64.3.46a3.11,3.11,0,0,1,.67-.3,2.63,2.63,0,0,0,.66-.35.24.24,0,0,0-.07-.45A1.25,1.25,0,0,0,323.14,217Z" style="fill:#fff"></path><path d="M330.5,212c-1.5.87-3.34,1.42-4.66,2.57-.29.26-.17.85.25.83,1.83-.06,3.69-1.27,5.26-2.21.13-.07.26-.16.39-.24a15.74,15.74,0,0,0,1.42-2.66C332.29,210.86,331.4,211.44,330.5,212Z"></path><path d="M320,218.1c.42-.31,0-.83-.36-.79a33.63,33.63,0,0,0-4.16,1.18c-.91.22-1.83.42-2.75.59a14.78,14.78,0,0,0,2.1.7A10.37,10.37,0,0,0,320,218.1Z" style="fill:#fff"></path></g><path d="M324.28,218.06a2,2,0,0,1-.43.24,10.13,10.13,0,0,1-1.24.51,13.92,13.92,0,0,1-4.35.73,14.1,14.1,0,0,1-2.43-.21,13.32,13.32,0,0,1-1.93-.51c-.27-.09-.5-.19-.71-.28a5.36,5.36,0,0,1-.52-.24,2.29,2.29,0,0,1-.43-.25s.65.28,1.71.62a16,16,0,0,0,1.91.45,14.79,14.79,0,0,0,6.7-.46C323.63,218.33,324.26,218,324.28,218.06Z" style="fill:#fff"></path><path d="M330.37,194.87c.06,0-.14.41-.56,1l-.35.52c-.14.19-.3.37-.47.58a17,17,0,0,1-1.21,1.36l-.76.75c-.26.26-.56.5-.86.76a23.19,23.19,0,0,1-2,1.55,27.56,27.56,0,0,1-5.13,2.76,28.2,28.2,0,0,1-5.61,1.58c-.89.12-1.73.25-2.53.28-.4,0-.78,0-1.15,0l-1.06,0a15.86,15.86,0,0,1-1.82-.13l-.74-.1-.61-.12c-.74-.16-1.14-.29-1.12-.37s.43-.1,1.17-.07l.61,0h.73c.53,0,1.12,0,1.78,0l1-.05c.36,0,.73-.08,1.11-.12.77-.06,1.57-.22,2.43-.37a32.8,32.8,0,0,0,5.37-1.59,33.6,33.6,0,0,0,5-2.58c.71-.49,1.4-.93,2-1.42.3-.24.61-.45.88-.69l.77-.67c.51-.41.92-.85,1.3-1.21l.53-.5.42-.45C330,195.1,330.3,194.82,330.37,194.87Z" style="fill:#8E5D52"></path><path d="M333.62,208.81a.48.48,0,0,1,0-.12,3,3,0,0,1,.06-.33c.07-.31.15-.74.27-1.29v0s0,0,0,0v0l0-.22h0l0,0a15,15,0,0,0-.16-5l0-.07s0,.1,0,.11l0,0a14.68,14.68,0,0,0-8.93-10.69l.12,0h0l0,0-.08,0a13.16,13.16,0,0,0-2-.67,14.34,14.34,0,0,0-9,.83,16.39,16.39,0,0,0-6,4.42,15.71,15.71,0,0,0-2.61,4.34c-.21.56-.36,1-.45,1.3,0,.14-.07.26-.1.35s0,.12-.05.11a11.59,11.59,0,0,1,.52-1.8,15.25,15.25,0,0,1,2.57-4.4,16.26,16.26,0,0,1,6.05-4.51,15.1,15.1,0,0,1,4.33-1.16,13.57,13.57,0,0,1,4.81.3,12.52,12.52,0,0,1,2,.68l-.12,0h0l.05-.05.07,0a14.76,14.76,0,0,1,9,10.87l0,0s0,.11,0,.11l0-.07a14.91,14.91,0,0,1,.09,5.05v0h0v0l0,.22v0s0,.06,0,.07v0c-.13.55-.23,1-.31,1.29l-.08.33C333.64,208.77,333.63,208.81,333.62,208.81Z" style="fill:#fff"></path><path d="M304.8,210.59c-.07-.17-.12-.34-.18-.51-6.62,3.59-9.6,5.95-10,7a.26.26,0,0,0,0,.2v0s.12.09.16.11c.76.31,4.81.59,25-8.6,12.15-5.53,20.61-11,23-13.31a.42.42,0,0,0-.31-.73,52.12,52.12,0,0,0-9.52,2.63c.05.12.11.24.17.37,3.87-1.34,6.37-1.89,6.6-1.33.45,1.11-8.46,6.23-19.9,11.45s-21.08,8.54-21.53,7.43C298,214.78,300.54,213,304.8,210.59Z" style="fill:#8E5D52"></path><path d="M332.15,196.05c.05.09.1.2.16.29,6-2.12,10.38-3.17,11.67-2.66a1,1,0,0,1,.66,1c0,.45,0,1.8-7.44,6.41a153.92,153.92,0,0,1-17,9c-2.61,1.19-5.4,2.42-8.14,3.57-7.93,3.32-15.54,6-17.83,5.07a1.39,1.39,0,0,1-.82-.78,1.53,1.53,0,0,1,0-1.18c.78-2,5.54-5,10.84-7.84l-.06-.22c-8.9,4.9-14.36,9.09-13.93,10.82.92,3.72,14.69-.78,30.56-8s27.87-15.83,26.91-18.18C347.11,191.71,340.89,192.94,332.15,196.05Z" style="fill:#8E5D52"></path><path d="M335.92,197.8c.13,0-.61.73-.63.75a9.41,9.41,0,0,1-1,.67c-.88.58-1.8,1.12-2.72,1.63a35.18,35.18,0,0,0-3.94,2.18.13.13,0,0,0,.13.23,24.48,24.48,0,0,0,8.06-4.46c.32-.26.84-.63.67-1.1a.44.44,0,0,0-.66-.25.18.18,0,0,0,.07.35Z" style="fill:#8E5D52"></path><g style="opacity:0.30000000000000004"><path d="M304.8,210.59c-.07-.17-.12-.34-.18-.51-6.62,3.59-9.6,5.95-10,7a.26.26,0,0,0,0,.2v0s.12.09.16.11c.76.31,4.81.59,25-8.6,12.15-5.53,20.61-11,23-13.31a.42.42,0,0,0-.31-.73,52.12,52.12,0,0,0-9.52,2.63c.05.12.11.24.17.37,3.87-1.34,6.37-1.89,6.6-1.33.45,1.11-8.46,6.23-19.9,11.45s-21.08,8.54-21.53,7.43C298,214.78,300.54,213,304.8,210.59Z"></path><path d="M335.92,197.8c.13,0-.61.73-.63.75a9.41,9.41,0,0,1-1,.67c-.88.58-1.8,1.12-2.72,1.63a35.18,35.18,0,0,0-3.94,2.18.13.13,0,0,0,.13.23,24.48,24.48,0,0,0,8.06-4.46c.32-.26.84-.63.67-1.1a.44.44,0,0,0-.66-.25.18.18,0,0,0,.07.35Z"></path></g><g style="opacity:0.30000000000000004"><path d="M332.15,196.05c.05.09.1.2.16.29,6-2.12,10.38-3.17,11.67-2.66a1,1,0,0,1,.66,1c0,.45,0,1.8-7.44,6.41a153.92,153.92,0,0,1-17,9c-2.61,1.19-5.4,2.42-8.14,3.57-7.93,3.32-15.54,6-17.83,5.07a1.39,1.39,0,0,1-.82-.78,1.53,1.53,0,0,1,0-1.18c.78-2,5.54-5,10.84-7.84l-.06-.22c-8.9,4.9-14.36,9.09-13.93,10.82.92,3.72,14.69-.78,30.56-8s27.87-15.83,26.91-18.18C347.11,191.71,340.89,192.94,332.15,196.05Z"></path></g><path d="M171.68,394.18,155.44,387c-3.38,2.69-5.65,7.67-5.65,13.37,0,8.56,5.13,15.5,11.45,15.5s11.46-6.94,11.46-15.5A24.73,24.73,0,0,0,171.68,394.18Z" style="fill:#e0e0e0"></path><path d="M168.25,397.24a14.82,14.82,0,0,0-1.84-5.13l-10.82-4.92a31.33,31.33,0,0,0-4.29.43c-6.94,1.14-7.94.87-15.21.88a66.51,66.51,0,0,1-18.57-2,47.12,47.12,0,0,1-16-6.68,25.77,25.77,0,0,1-6-4.69q-1.68-1.63-3.21-3.41a9.08,9.08,0,0,0-.87-.94,9.82,9.82,0,0,0-.59-1c-3-4.93-4.9-8.35-5.42-13.56-.5-5,0-9.12,2.19-14.94-.09.33,1.06-2.36,1.21-2.65a49.18,49.18,0,0,1,2.66-4.47c.32-.49.66-1,1-1.44l.78-.95c1-1.07,1.94-2.15,3-3.16,4.18-4.13,5-5,11.1-8l-6.75-26.67-2.28.77a31.77,31.77,0,0,0-4.86,2.12A69.16,69.16,0,0,0,61.77,332.1a56.69,56.69,0,0,0,4.55,50.33c9.42,15.05,24.68,25.2,41.61,30,18.59,5.28,31.88,4.85,50.69,1.76C166,413,170.07,407.45,168.25,397.24Z" style="fill:#263238"></path><path d="M139.05,387.85a83.61,83.61,0,0,1-.21,28.92c-.25,1.41,2,2,2.23.53a86.46,86.46,0,0,0,.17-30.1c-.23-1.41-2.43-.75-2.19.65Z" style="fill:#263238"></path><path d="M139.05,387.85a.94.94,0,0,1,0-.68,1.35,1.35,0,0,1,.55-.64,1.3,1.3,0,0,1,1.16-.12,1,1,0,0,1,.5.52,5.17,5.17,0,0,1,.16.74c.08.51.17,1.06.27,1.64.18,1.18.37,2.53.52,4a84.29,84.29,0,0,1-.81,23.43,5,5,0,0,1-.2.89,1.15,1.15,0,0,1-.79.68,1.54,1.54,0,0,1-1.74-.76,1.5,1.5,0,0,1-.09-1l.14-.82c.1-.53.18-1.07.26-1.6.32-2.13.57-4.2.72-6.17a84.64,84.64,0,0,0,.18-10.51c-.12-3-.38-5.41-.57-7.07l-.24-1.92a3.07,3.07,0,0,1,0-.67,4,4,0,0,1,.15.66c.09.43.22,1.07.34,1.9.26,1.66.57,4.08.74,7.08a80.21,80.21,0,0,1-.08,10.57c-.13,2-.37,4.06-.69,6.2-.07.54-.16,1.08-.25,1.62l-.14.82a.94.94,0,0,0,0,.65,1,1,0,0,0,1.13.49.65.65,0,0,0,.46-.39,5.41,5.41,0,0,0,.16-.77,89.17,89.17,0,0,0,1-23.31c-.13-1.49-.29-2.83-.45-4-.08-.59-.16-1.14-.23-1.65a5.44,5.44,0,0,0-.12-.69.77.77,0,0,0-.38-.43,1.13,1.13,0,0,0-1,.08,1.27,1.27,0,0,0-.54.54A2,2,0,0,0,139.05,387.85Z" style="fill:#455a64"></path><path d="M150.34,386.36A69.13,69.13,0,0,1,154,416c-.13,1.42,2.16,1.35,2.3-.06a70.91,70.91,0,0,0-3.74-30.26c-.48-1.35-2.68-.71-2.2.65Z" style="fill:#263238"></path><path d="M150.34,386.36s0-.05-.07-.17a1,1,0,0,1,0-.52A1.3,1.3,0,0,1,152,385a1.09,1.09,0,0,1,.53.51,6.15,6.15,0,0,1,.28.71c.17.5.37,1,.56,1.61.38,1.16.79,2.5,1.17,4a69.38,69.38,0,0,1,2,23.87,1.91,1.91,0,0,1-.25,1,1.5,1.5,0,0,1-.83.6,1.55,1.55,0,0,1-1,0,1.11,1.11,0,0,1-.71-.79,3.55,3.55,0,0,1,0-.93l.07-.84c.06-.56.08-1.11.11-1.66.12-2.2.13-4.33.06-6.35a73.3,73.3,0,0,0-2.92-17.73c-.23-.82-.44-1.46-.57-1.89a2.92,2.92,0,0,1-.17-.67,2.9,2.9,0,0,1,.27.64c.16.42.4,1,.66,1.86a62.31,62.31,0,0,1,1.88,7,68.65,68.65,0,0,1,1.33,10.73c.08,2,.08,4.18,0,6.39,0,.56,0,1.12-.1,1.68l-.07.84a2.92,2.92,0,0,0,0,.77c.06.41.61.59,1.06.44a1,1,0,0,0,.55-.4,1.34,1.34,0,0,0,.17-.72,72,72,0,0,0-1.82-23.73c-.37-1.49-.75-2.82-1.1-4-.17-.58-.36-1.12-.52-1.62s-.27-1-.66-1.12a1.25,1.25,0,0,0-1,0,1,1,0,0,0-.55.54A1.87,1.87,0,0,0,150.34,386.36Z" style="fill:#455a64"></path><path d="M67.83,384.54a36,36,0,0,1,22.61-16.13c1.44-.33.83-2.54-.61-2.21a38.31,38.31,0,0,0-24,17.18c-.78,1.27,1.21,2.42,2,1.16Z" style="fill:#263238"></path><path d="M67.83,384.54s0,.06-.08.16a1,1,0,0,1-.39.33,1.08,1.08,0,0,1-.83.07,1.27,1.27,0,0,1-.88-.74,1.07,1.07,0,0,1,0-.71A2.51,2.51,0,0,1,66,383c.28-.43.56-.9.9-1.4a36.3,36.3,0,0,1,2.45-3.21,37.92,37.92,0,0,1,7.85-7,37.29,37.29,0,0,1,11.74-5.23l.84-.21a1.46,1.46,0,0,1,1,.11,1.52,1.52,0,0,1,.72,1.73,1.21,1.21,0,0,1-.66.77c-.34.13-.57.16-.84.24-.53.14-1,.24-1.56.41a34.44,34.44,0,0,0-5.73,2.21,36.74,36.74,0,0,0-13.31,11c-1,1.33-1.49,2.12-1.53,2.09a2.62,2.62,0,0,1,.32-.59c.23-.37.55-.94,1-1.61A33,33,0,0,1,73.83,377a35.63,35.63,0,0,1,8.63-6,34.14,34.14,0,0,1,5.8-2.27c.51-.17,1-.28,1.58-.42.25-.07.56-.14.74-.21a.71.71,0,0,0,.39-.44,1,1,0,0,0-.48-1.13.92.92,0,0,0-.64-.06l-.82.21a37.49,37.49,0,0,0-11.61,5.12,39.11,39.11,0,0,0-7.84,6.82c-1,1.11-1.79,2.18-2.49,3.14l-.92,1.36a1.21,1.21,0,0,0-.33,1.18,1.17,1.17,0,0,0,.73.67,1.11,1.11,0,0,0,.75,0A1.9,1.9,0,0,0,67.83,384.54Z" style="fill:#455a64"></path><path d="M80.29,398.53a35.72,35.72,0,0,1,19.36-21.69c1.35-.61.18-2.58-1.16-2a38,38,0,0,0-20.42,23.06c-.44,1.41,1.77,2,2.22.61Z" style="fill:#263238"></path><path d="M80.29,398.53s0,.06-.05.17a1,1,0,0,1-.31.44,1.21,1.21,0,0,1-.83.26,1.28,1.28,0,0,1-1-.59,1.07,1.07,0,0,1-.14-.73,5.92,5.92,0,0,1,.22-.75c.18-.5.34-1.06.56-1.63a37.67,37.67,0,0,1,8-12.8A37.21,37.21,0,0,1,97.57,375l.81-.39a1.44,1.44,0,0,1,1-.06,1.51,1.51,0,0,1,1.06,1.63,1.14,1.14,0,0,1-.64.84l-.78.38c-.51.25-1,.48-1.5.76a33.52,33.52,0,0,0-5.36,3.51,35.91,35.91,0,0,0-7.38,7.92A35.08,35.08,0,0,0,81.31,396c-.68,1.59-1,2.52-1,2.5a2.83,2.83,0,0,1,.18-.68,18.9,18.9,0,0,1,.65-1.9,32.79,32.79,0,0,1,3.39-6.56,35.48,35.48,0,0,1,7.39-8.08,34.8,34.8,0,0,1,5.41-3.59c.49-.29,1-.52,1.53-.77l.76-.38a.61.61,0,0,0,.37-.47,1,1,0,0,0-.7-1.05,1,1,0,0,0-.68.05l-.79.38a36.93,36.93,0,0,0-10.71,7.76A38.52,38.52,0,0,0,80.73,392,40.56,40.56,0,0,0,79,395.8c-.23.57-.4,1.12-.59,1.61s-.37.95-.15,1.3a1.12,1.12,0,0,0,.88.53,1.16,1.16,0,0,0,.76-.18A2.1,2.1,0,0,0,80.29,398.53Z" style="fill:#455a64"></path><path d="M108.73,382.49a60.13,60.13,0,0,0-10.5,28.63c-.14,1.36,2,1.35,2.09,0a58.07,58.07,0,0,1,10.22-27.56c.78-1.12-1-2.18-1.81-1.07Z" style="fill:#263238"></path><path d="M108.73,382.49s0-.06.09-.15a1,1,0,0,1,.42-.31,1.22,1.22,0,0,1,.86,0,1,1,0,0,1,.51,1.6l-.4.62c-.28.43-.6.9-.91,1.41-.63,1-1.33,2.2-2,3.54a58.3,58.3,0,0,0-4.14,9.77,53.27,53.27,0,0,0-1.61,6.05c-.21,1.07-.42,2.16-.57,3.27-.09.55-.17,1.11-.23,1.68l-.1.85a2,2,0,0,1-.26.94,1.42,1.42,0,0,1-1.89.42,1.11,1.11,0,0,1-.49-.94,7.77,7.77,0,0,1,.08-.88c.12-1.12.28-2.23.45-3.31a61.71,61.71,0,0,1,1.37-6.17,60.28,60.28,0,0,1,3.76-10,53.56,53.56,0,0,1,3.56-6.27c.46-.72.86-1.24,1.12-1.61a3.41,3.41,0,0,1,.42-.53,2.89,2.89,0,0,1-.34.59c-.23.39-.6.93-1,1.66a59.85,59.85,0,0,0-3.39,6.31,61.25,61.25,0,0,0-5,16.1c-.17,1.08-.33,2.17-.45,3.29,0,.26-.08.59-.08.81a.63.63,0,0,0,.26.51.91.91,0,0,0,1.18-.27,1.6,1.6,0,0,0,.18-.71l.09-.85c.06-.58.15-1.14.23-1.7.16-1.12.37-2.22.6-3.29a54.13,54.13,0,0,1,1.64-6.1,56.76,56.76,0,0,1,4.28-9.8c.73-1.33,1.46-2.5,2.12-3.51.32-.52.65-1,.94-1.4s.64-.79.63-1.16a1,1,0,0,0-.59-.78,1.08,1.08,0,0,0-.76-.06C108.87,382.28,108.76,382.52,108.73,382.49Z" style="fill:#455a64"></path><path d="M124.54,387.08a86.11,86.11,0,0,0-6.66,28.39c-.08,1.33,2.21,1.33,2.29,0a84.43,84.43,0,0,1,6.58-27.84c.52-1.25-1.69-1.79-2.21-.55Z" style="fill:#263238"></path><path d="M124.54,387.08a.91.91,0,0,1,.39-.54,1.32,1.32,0,0,1,.79-.23,1.31,1.31,0,0,1,1,.45.89.89,0,0,1,.16.7c-.07.26-.17.45-.25.69-.19.47-.38,1-.59,1.51-.41,1.09-.87,2.34-1.33,3.73a87.6,87.6,0,0,0-2.69,9.91c-.39,1.9-.74,3.9-1,6-.15,1-.27,2.11-.37,3.19,0,.54-.11,1.09-.14,1.63l-.06.83a4.57,4.57,0,0,1-.11.9,1.48,1.48,0,0,1-1.65.88,1.21,1.21,0,0,1-1.08-1.45c.07-1.09.16-2.16.27-3.22.22-2.1.51-4.13.84-6a83.73,83.73,0,0,1,2.41-10c.86-2.81,1.72-5,2.34-6.56.31-.76.57-1.34.75-1.73a2.56,2.56,0,0,1,.3-.59,2.88,2.88,0,0,1-.2.63l-.66,1.77c-.57,1.53-1.36,3.77-2.17,6.58a87.93,87.93,0,0,0-2.3,10c-.32,1.91-.59,3.92-.8,6-.1,1.05-.19,2.12-.26,3.2a.7.7,0,0,0,.64.91,1,1,0,0,0,1.08-.54,4.79,4.79,0,0,0,.08-.76l.06-.84c0-.55.1-1.1.14-1.64.11-1.09.23-2.16.38-3.21.3-2.09.65-4.11,1.06-6a83.25,83.25,0,0,1,2.81-9.93c.48-1.39,1-2.63,1.41-3.71q.33-.81.63-1.5c.09-.23.21-.46.26-.65a.7.7,0,0,0-.1-.53,1.21,1.21,0,0,0-.88-.42,1.24,1.24,0,0,0-.73.17C124.64,386.85,124.57,387.1,124.54,387.08Z" style="fill:#455a64"></path><path d="M58.69,364.91a33.1,33.1,0,0,1,27.3-6c1.44.33,2.05-1.88.61-2.21a35.31,35.31,0,0,0-29.07,6.19c-1.16.89,0,2.88,1.16,2Z" style="fill:#263238"></path><path d="M58.69,364.91l-.14.11a.85.85,0,0,1-.49.16A1.26,1.26,0,0,1,57,363.7a1.42,1.42,0,0,1,.28-.66,4.51,4.51,0,0,1,.59-.49c.42-.3.86-.64,1.36-1a34.28,34.28,0,0,1,3.51-2.09,35.39,35.39,0,0,1,23.06-3.19l.85.17a1.39,1.39,0,0,1,.86.56,1.49,1.49,0,0,1-.31,1.87,1.37,1.37,0,0,1-1,.34c-.36,0-.57-.1-.86-.15-.53-.1-1.06-.24-1.6-.3a30.49,30.49,0,0,0-6.18-.38,34,34,0,0,0-16.68,5.1c-1.43.88-2.17,1.45-2.2,1.41a2.87,2.87,0,0,1,.52-.44,18.61,18.61,0,0,1,1.57-1.14,31,31,0,0,1,6.37-3.27,32.72,32.72,0,0,1,10.4-2.14,31.43,31.43,0,0,1,6.28.35c.55.06,1.08.2,1.63.3a7.57,7.57,0,0,0,.77.14.8.8,0,0,0,.59-.21,1,1,0,0,0,.21-1.2.85.85,0,0,0-.54-.33l-.84-.17a35,35,0,0,0-12.8-.21,35.47,35.47,0,0,0-10,3.22,35,35,0,0,0-3.52,2c-.5.32-1,.66-1.37.94a3.9,3.9,0,0,0-.56.44,1.09,1.09,0,0,0-.26.54,1.14,1.14,0,0,0,.9,1.35A1.91,1.91,0,0,0,58.69,364.91Z" style="fill:#455a64"></path><path d="M58.93,344.31a24.5,24.5,0,0,1,26.95,2.9c1.15,1,2.85-.64,1.69-1.62a27,27,0,0,0-29.84-3.26c-1.35.71-.15,2.69,1.2,2Z" style="fill:#263238"></path><path d="M58.93,344.31a1,1,0,0,1-.67.2,1.26,1.26,0,0,1-.79-.34,1.32,1.32,0,0,1-.42-1.11,1.08,1.08,0,0,1,.35-.64,2.72,2.72,0,0,1,.68-.39c.47-.23,1-.49,1.53-.75l1.83-.72c.67-.2,1.36-.44,2.11-.63a27,27,0,0,1,10.78-.56,26.76,26.76,0,0,1,12.18,5.05c.47.39.92.69,1.39,1.14a1.18,1.18,0,0,1,.29,1,1.43,1.43,0,0,1-.55.85,1.5,1.5,0,0,1-1.89,0l-1.31-1a23.81,23.81,0,0,0-5.51-3,24.51,24.51,0,0,0-10.49-1.59,25,25,0,0,0-7,1.5,19.32,19.32,0,0,0-1.82.75,3.38,3.38,0,0,1-.65.24,5.23,5.23,0,0,1,.6-.34,18.49,18.49,0,0,1,1.8-.84,23.48,23.48,0,0,1,7.09-1.67A24.33,24.33,0,0,1,79.1,343a23.93,23.93,0,0,1,5.65,3l1.32,1a1,1,0,0,0,1.25,0,.75.75,0,0,0,.19-1.12c-.36-.34-.88-.71-1.31-1.06a26.64,26.64,0,0,0-11.94-5,27.39,27.39,0,0,0-10.62.44c-.74.18-1.43.41-2.09.6l-1.82.67-1.54.7a3.47,3.47,0,0,0-.64.34.85.85,0,0,0-.3.51,1.17,1.17,0,0,0,.33,1,1.15,1.15,0,0,0,.69.34A2,2,0,0,0,58.93,344.31Z" style="fill:#455a64"></path><path d="M92.37,334.23A24.82,24.82,0,0,0,65.71,319.9c-1.46.23-.84,2.45.61,2.22a22.53,22.53,0,0,1,24.07,13.27c.59,1.35,2.57.18,2-1.16Z" style="fill:#263238"></path><path d="M92.37,334.23a1,1,0,0,1,.14.69,1.33,1.33,0,0,1-.41.78A1.22,1.22,0,0,1,91,336a.93.93,0,0,1-.58-.47c-.14-.23-.24-.44-.36-.68a16.5,16.5,0,0,0-.82-1.52A21.81,21.81,0,0,0,86.76,330,22.58,22.58,0,0,0,78,323.69a22.14,22.14,0,0,0-6.22-1.5l-1.68-.09-1.71,0c-.58,0-1.15.13-1.73.19a2.14,2.14,0,0,1-1,0,1.45,1.45,0,0,1-.8-.68,1.56,1.56,0,0,1-.2-1,1.13,1.13,0,0,1,.69-.85,4.5,4.5,0,0,1,.93-.17l.88-.1a14.82,14.82,0,0,1,1.75-.11,12.33,12.33,0,0,1,1.72,0,22.93,22.93,0,0,1,6.45,1.1,23.82,23.82,0,0,1,5.41,2.39,25.15,25.15,0,0,1,4.14,3.07,23.13,23.13,0,0,1,4.6,5.83,16.34,16.34,0,0,1,.9,1.81,3.07,3.07,0,0,1,.26.66c-.05,0-.44-.87-1.33-2.37a24.63,24.63,0,0,0-4.68-5.66,25,25,0,0,0-4.11-3,24.15,24.15,0,0,0-5.33-2.31,29.08,29.08,0,0,0-3.06-.73,26.83,26.83,0,0,0-3.27-.31,11.92,11.92,0,0,0-1.69,0,14,14,0,0,0-1.7.11l-.87.1a4.18,4.18,0,0,0-.8.13.77.77,0,0,0-.24,1.15,1,1,0,0,0,.52.45,1.73,1.73,0,0,0,.76,0c.59-.07,1.18-.15,1.76-.2l1.75-.05,1.73.1a23,23,0,0,1,6.35,1.56A22.6,22.6,0,0,1,87,329.72a22.3,22.3,0,0,1,2.41,3.5,17.43,17.43,0,0,1,.78,1.56c.24.48.38,1,.78,1.07a1.09,1.09,0,0,0,1-.26,1.31,1.31,0,0,0,.41-.68A1.87,1.87,0,0,0,92.37,334.23Z" style="fill:#455a64"></path><path d="M101.07,325.69a22.74,22.74,0,0,0-21.29-21.25c-1.47-.1-1.47,2.19,0,2.3a20.67,20.67,0,0,1,19,18.95c.11,1.46,2.4,1.48,2.3,0Z" style="fill:#263238"></path><path d="M101.07,325.69s0,.06,0,.18a.94.94,0,0,1-.14.52,1.29,1.29,0,0,1-1.9.13c-.41-.33-.4-.93-.48-1.42a14.85,14.85,0,0,0-.27-1.7,16.3,16.3,0,0,0-.49-1.91l-.33-1c-.12-.35-.29-.69-.43-1.05a19.37,19.37,0,0,0-2.55-4.36A19.66,19.66,0,0,0,90.38,311a20.38,20.38,0,0,0-5.65-3c-.53-.16-1.06-.36-1.61-.48s-1.11-.25-1.68-.34L79.72,307a1.39,1.39,0,0,1-1-.48,1.58,1.58,0,0,1-.35-1,1.4,1.4,0,0,1,.39-1,1.29,1.29,0,0,1,1-.33c.6.05,1.19.11,1.77.2a23.36,23.36,0,0,1,3.38.76,22.88,22.88,0,0,1,5.93,2.75A22.21,22.21,0,0,1,98.37,316a22.79,22.79,0,0,1,2.43,7,16.67,16.67,0,0,1,.25,2,4.74,4.74,0,0,1,0,.71A3.34,3.34,0,0,1,101,325c-.07-.46-.16-1.13-.34-2a24.23,24.23,0,0,0-2.56-6.88,22.22,22.22,0,0,0-7.4-7.84,23.14,23.14,0,0,0-5.82-2.67,24.9,24.9,0,0,0-3.31-.73c-.57-.09-1.14-.14-1.73-.19a.73.73,0,0,0-.85.8.92.92,0,0,0,.83,1l1.76.22c.58.09,1.14.24,1.71.35s1.11.33,1.65.49a21.11,21.11,0,0,1,5.78,3.07,21.07,21.07,0,0,1,6.72,8.67c.14.37.3.72.42,1.08s.22.71.32,1a18.12,18.12,0,0,1,.46,2,17.24,17.24,0,0,1,.23,1.73c.07.53,0,1,.37,1.29a1.15,1.15,0,0,0,1.67,0A1.92,1.92,0,0,0,101.07,325.69Z" style="fill:#455a64"></path><path d="M351.75,386.22l-16.57,8.37a16.57,16.57,0,0,0-1,5.13c0,8.35,5.42,15.13,12.1,15.13s12.09-6.78,12.09-15.13A17.58,17.58,0,0,0,351.75,386.22Z" style="fill:#e0e0e0"></path><path d="M340.38,396.68a14.21,14.21,0,0,1,1.79-5l9.58-5.23a49.64,49.64,0,0,1,5.17.84c6.77,1.12,7.74.85,14.84.87a65.25,65.25,0,0,0,18.12-2,46.35,46.35,0,0,0,15.62-6.52,25.19,25.19,0,0,0,5.8-4.59c1.1-1.05,2.15-2.17,3.14-3.32a9.13,9.13,0,0,1,.85-.91,8.81,8.81,0,0,1,.57-1c3-4.8,4.79-8.14,5.3-13.22.49-4.89,0-8.9-2.14-14.59.09.33-1-2.3-1.18-2.58a49.14,49.14,0,0,0-2.6-4.36c-.31-.48-.64-.94-1-1.4l-.77-.93c-.95-1.05-1.88-2.1-2.89-3.09-4.09-4-4.85-4.9-10.84-7.83l6.59-26,2.23.75a30.65,30.65,0,0,1,4.74,2.07,67.5,67.5,0,0,1,30.95,34.48,55.32,55.32,0,0,1-4.44,49.13c-9.19,14.68-24.08,24.58-40.6,29.27-18.14,5.15-31.11,4.73-49.47,1.72C342.6,412,338.6,406.64,340.38,396.68Z" style="fill:#263238"></path><path d="M368.87,387.51a81.55,81.55,0,0,0,.2,28.22c.25,1.38-1.92,1.9-2.17.52a84.53,84.53,0,0,1-.17-29.38c.23-1.37,2.37-.72,2.14.64Z" style="fill:#263238"></path><path d="M368.87,387.51a1.88,1.88,0,0,0-.12-.62,1.17,1.17,0,0,0-.53-.53,1.1,1.1,0,0,0-1-.07.79.79,0,0,0-.37.41,5,5,0,0,0-.12.68c-.07.49-.14,1-.22,1.6-.15,1.15-.31,2.46-.44,3.92a86.53,86.53,0,0,0,.95,22.74,4.44,4.44,0,0,0,.15.76.63.63,0,0,0,.44.37,1,1,0,0,0,1.1-.47,1,1,0,0,0,.05-.64l-.14-.79c-.09-.53-.18-1.06-.25-1.58-.31-2.1-.54-4.12-.67-6.06a79.76,79.76,0,0,1-.08-10.31c.17-2.93.48-5.29.73-6.91.12-.81.25-1.44.33-1.86a4,4,0,0,1,.15-.64,3,3,0,0,1-.05.66c-.06.48-.13,1.1-.23,1.87-.19,1.62-.44,4-.56,6.9a82.57,82.57,0,0,0,.19,10.25c.14,1.93.38,3.94.69,6,.08.52.17,1,.26,1.57l.14.79a1.48,1.48,0,0,1-.1,1,1.51,1.51,0,0,1-1.7.74,1.16,1.16,0,0,1-.78-.67,5.76,5.76,0,0,1-.19-.87,82.42,82.42,0,0,1-.79-22.86c.15-1.46.33-2.78.51-3.93.1-.57.19-1.11.27-1.6a5.75,5.75,0,0,1,.15-.72,1,1,0,0,1,.5-.52,1.29,1.29,0,0,1,1.12.12,1.33,1.33,0,0,1,.54.62A.9.9,0,0,1,368.87,387.51Z" style="fill:#455a64"></path><path d="M357.85,386.06A67.68,67.68,0,0,0,354.3,415c.13,1.39-2.11,1.31-2.24-.06a69,69,0,0,1,3.65-29.53c.46-1.32,2.61-.69,2.14.64Z" style="fill:#263238"></path><path d="M357.85,386.06a1.83,1.83,0,0,0,0-.65,1.15,1.15,0,0,0-1.53-.51c-.38.16-.49.6-.64,1.09s-.34,1-.51,1.58c-.34,1.14-.71,2.44-1.07,3.89a70.39,70.39,0,0,0-1.78,23.16,1.36,1.36,0,0,0,.17.7.94.94,0,0,0,.53.38c.44.15,1,0,1-.42a3.17,3.17,0,0,0,0-.74l-.06-.83c-.06-.55-.07-1.09-.11-1.63-.1-2.17-.1-4.26,0-6.24a66.65,66.65,0,0,1,1.3-10.47,58.53,58.53,0,0,1,1.83-6.87c.26-.8.49-1.41.65-1.82a3,3,0,0,1,.26-.62,3.19,3.19,0,0,1-.16.65c-.13.42-.33,1-.56,1.85-.46,1.6-1.1,3.94-1.66,6.88a70,70,0,0,0-1.18,10.42c-.07,2-.06,4,0,6.19,0,.54.06,1.08.11,1.62l.07.82a3.4,3.4,0,0,1,0,.91,1.08,1.08,0,0,1-.7.78,1.57,1.57,0,0,1-1.81-.58,1.77,1.77,0,0,1-.24-.93,67.53,67.53,0,0,1,1.94-23.3c.38-1.46.78-2.75,1.15-3.89.18-.57.37-1.09.54-1.57a6.71,6.71,0,0,1,.27-.7,1.07,1.07,0,0,1,.52-.49,1.27,1.27,0,0,1,1.72.66,1,1,0,0,1,0,.51C357.88,386,357.86,386.06,357.85,386.06Z" style="fill:#455a64"></path><path d="M438.37,384.28a35.13,35.13,0,0,0-22.06-15.74c-1.41-.32-.82-2.48.59-2.16a37.38,37.38,0,0,1,23.41,16.77c.75,1.23-1.18,2.36-1.94,1.13Z" style="fill:#263238"></path><path d="M438.37,384.28a2.06,2.06,0,0,0,.5.39,1.06,1.06,0,0,0,.73,0,1.08,1.08,0,0,0,.71-.65,1.15,1.15,0,0,0-.32-1.14l-.9-1.33c-.68-.94-1.48-2-2.44-3.07a38,38,0,0,0-7.64-6.65,37.09,37.09,0,0,0-11.33-5l-.8-.2a.87.87,0,0,0-.62.06,1,1,0,0,0-.46,1.09.64.64,0,0,0,.37.43,6.18,6.18,0,0,0,.73.2c.51.14,1,.25,1.54.42a32.82,32.82,0,0,1,5.66,2.21,35,35,0,0,1,8.42,5.85,31.45,31.45,0,0,1,4.52,5.23c.48.66.8,1.21,1,1.58a2.73,2.73,0,0,1,.31.57s-.52-.74-1.49-2a35.28,35.28,0,0,0-4.61-5.08,35.74,35.74,0,0,0-8.39-5.69,33.51,33.51,0,0,0-5.58-2.15c-.5-.17-1-.27-1.52-.41a5.8,5.8,0,0,1-.82-.23,1.17,1.17,0,0,1-.66-.75,1.49,1.49,0,0,1,.72-1.7,1.45,1.45,0,0,1,1-.11l.81.21a36.72,36.72,0,0,1,11.46,5.1,37.14,37.14,0,0,1,7.66,6.81,36.5,36.5,0,0,1,2.39,3.14c.33.48.61.95.88,1.36a2.94,2.94,0,0,1,.34.66,1,1,0,0,1,0,.7,1.26,1.26,0,0,1-1.67.65.92.92,0,0,1-.38-.33C438.39,384.34,438.36,384.29,438.37,384.28Z" style="fill:#455a64"></path><path d="M426.21,397.93a34.87,34.87,0,0,0-18.89-21.16c-1.31-.59-.18-2.53,1.13-1.94a37.06,37.06,0,0,1,19.92,22.5c.44,1.38-1.72,2-2.16.6Z" style="fill:#263238"></path><path d="M426.21,397.93s.08.25.41.51a1.14,1.14,0,0,0,1.6-.33c.21-.35,0-.78-.15-1.27s-.35-1-.58-1.57a38.44,38.44,0,0,0-1.71-3.7,37.61,37.61,0,0,0-6.21-8.56,36.56,36.56,0,0,0-10.45-7.57l-.77-.37a.94.94,0,0,0-.66,0,1,1,0,0,0-.68,1,.62.62,0,0,0,.36.45c.22.12.5.24.75.36.5.25,1,.48,1.48.76a33.13,33.13,0,0,1,5.28,3.5,34.45,34.45,0,0,1,7.21,7.89,32.42,32.42,0,0,1,3.32,6.4,19.48,19.48,0,0,1,.63,1.86,3.07,3.07,0,0,1,.17.66s-.33-.88-1-2.44a35.53,35.53,0,0,0-10.64-14,33.37,33.37,0,0,0-5.22-3.42c-.47-.27-1-.5-1.47-.74l-.76-.37a1.14,1.14,0,0,1-.63-.82,1.5,1.5,0,0,1,1-1.61,1.44,1.44,0,0,1,1,.07l.79.38a36.2,36.2,0,0,1,10.57,7.7,36.82,36.82,0,0,1,6.18,8.72,35.61,35.61,0,0,1,1.66,3.77c.22.56.38,1.1.55,1.59a6.09,6.09,0,0,1,.21.73,1,1,0,0,1-.13.72,1.25,1.25,0,0,1-1,.57,1.17,1.17,0,0,1-.81-.25,1,1,0,0,1-.3-.43C426.22,398,426.2,397.93,426.21,397.93Z" style="fill:#455a64"></path><path d="M398.46,382.28a58.93,58.93,0,0,1,10.25,27.94c.13,1.33-1.92,1.32-2,0a56.67,56.67,0,0,0-10-26.89c-.76-1.09,1-2.13,1.77-1.05Z" style="fill:#263238"></path><path d="M398.46,382.28s-.14-.21-.54-.35a1,1,0,0,0-.74.06.91.91,0,0,0-.57.76c0,.36.33.7.61,1.13s.61.86.92,1.36c.65,1,1.36,2.13,2.07,3.43a55.76,55.76,0,0,1,4.18,9.56,54.2,54.2,0,0,1,1.6,5.95c.22,1.05.43,2.12.58,3.22.08.54.17,1.09.22,1.65l.1.84a1.46,1.46,0,0,0,.17.69.89.89,0,0,0,1.14.26.58.58,0,0,0,.25-.5c0-.21-.05-.53-.08-.79-.11-1.09-.27-2.15-.43-3.2a58.66,58.66,0,0,0-1.3-6,59.57,59.57,0,0,0-3.54-9.73,58.14,58.14,0,0,0-3.31-6.16c-.42-.72-.78-1.25-1-1.62a2.88,2.88,0,0,1-.33-.58,4.16,4.16,0,0,1,.41.52c.26.36.65.87,1.09,1.57a50.44,50.44,0,0,1,3.47,6.11,58,58,0,0,1,5,15.78c.17,1.06.33,2.14.45,3.24,0,.29.07.52.08.85a1.07,1.07,0,0,1-.49.92,1.39,1.39,0,0,1-1.85-.4,2,2,0,0,1-.26-.93l-.09-.83c-.06-.55-.14-1.09-.22-1.64-.15-1.08-.35-2.14-.57-3.18a53.53,53.53,0,0,0-1.56-5.91,58.56,58.56,0,0,0-4-9.53c-.69-1.31-1.38-2.46-2-3.45-.31-.51-.61-1-.89-1.38l-.39-.6a1.17,1.17,0,0,1-.21-.69,1.07,1.07,0,0,1,.71-.88,1.16,1.16,0,0,1,.84,0,1,1,0,0,1,.41.3Z" style="fill:#455a64"></path><path d="M383,386.76a84.07,84.07,0,0,1,6.5,27.71c.08,1.3-2.16,1.29-2.24,0a82.25,82.25,0,0,0-6.42-27.18c-.51-1.21,1.65-1.74,2.16-.53Z" style="fill:#263238"></path><path d="M383,386.76s-.1-.22-.44-.44a1.25,1.25,0,0,0-.71-.16,1.14,1.14,0,0,0-.86.41.64.64,0,0,0-.09.51c.05.18.16.41.25.63l.62,1.46c.43,1.06.9,2.27,1.37,3.62a79.24,79.24,0,0,1,2.74,9.7q.6,2.79,1,5.87c.14,1,.26,2.06.37,3.13,0,.53.1,1.06.14,1.6l.06.81a3.74,3.74,0,0,0,.08.75.94.94,0,0,0,1,.52.68.68,0,0,0,.62-.88c-.07-1.06-.15-2.1-.25-3.12-.21-2-.48-4-.79-5.87a86.88,86.88,0,0,0-2.23-9.77c-.8-2.75-1.57-4.93-2.12-6.43-.27-.71-.48-1.28-.64-1.73a2.78,2.78,0,0,1-.2-.61,2.42,2.42,0,0,1,.29.57c.17.39.44.95.73,1.69.62,1.49,1.45,3.66,2.29,6.4a82.47,82.47,0,0,1,2.36,9.8c.32,1.87.6,3.84.82,5.9.1,1,.19,2.08.25,3.14a1.29,1.29,0,0,1-.19.94,1.32,1.32,0,0,1-.86.48,1.45,1.45,0,0,1-1.62-.87,4.22,4.22,0,0,1-.1-.87l-.06-.81c0-.54-.09-1.07-.14-1.59-.1-1.06-.22-2.1-.36-3.11q-.42-3.06-1-5.84a85.37,85.37,0,0,0-2.62-9.68c-.45-1.35-.89-2.57-1.29-3.63-.21-.52-.4-1-.58-1.47-.08-.24-.18-.43-.24-.68a.83.83,0,0,1,.15-.68,1.3,1.3,0,0,1,1-.45,1.33,1.33,0,0,1,.77.23A.83.83,0,0,1,383,386.76Z" style="fill:#455a64"></path><path d="M447.29,365.12a32.28,32.28,0,0,0-26.64-5.82c-1.4.32-2-1.84-.6-2.16a34.44,34.44,0,0,1,28.37,6.05c1.13.86,0,2.81-1.13,1.93Z" style="fill:#263238"></path><path d="M447.29,365.12a1.88,1.88,0,0,0,.61.17,1.11,1.11,0,0,0,.88-1.32,1.13,1.13,0,0,0-.25-.53A3.75,3.75,0,0,0,448,363c-.41-.28-.85-.6-1.33-.92a39.48,39.48,0,0,0-3.44-2,35.06,35.06,0,0,0-9.74-3.14,34.23,34.23,0,0,0-12.49.21l-.82.16a.8.8,0,0,0-.52.32,1,1,0,0,0,.2,1.17.85.85,0,0,0,.57.2c.19,0,.5-.09.75-.14.54-.09,1.06-.23,1.59-.29a30,30,0,0,1,6.14-.34A31.89,31.89,0,0,1,439,360.38a30.44,30.44,0,0,1,6.21,3.2c.69.44,1.19.85,1.54,1.11a3.53,3.53,0,0,1,.5.43c0,.05-.76-.51-2.15-1.37a33,33,0,0,0-6.23-3,32.48,32.48,0,0,0-10-2,30.54,30.54,0,0,0-6,.36c-.52.06-1,.2-1.56.3-.28.05-.49.11-.84.15a1.34,1.34,0,0,1-.93-.34,1.46,1.46,0,0,1-.3-1.83,1.33,1.33,0,0,1,.85-.55l.82-.16a34.51,34.51,0,0,1,22.51,3.11,37.06,37.06,0,0,1,3.43,2c.48.33.91.67,1.32,1a3.23,3.23,0,0,1,.57.48,1.26,1.26,0,0,1,.28.64,1.23,1.23,0,0,1-1.08,1.45.84.84,0,0,1-.48-.16Z" style="fill:#455a64"></path><path d="M447.05,345a23.91,23.91,0,0,0-26.3,2.83c-1.12,1-2.78-.62-1.65-1.58a26.39,26.39,0,0,1,29.13-3.18c1.32.69.14,2.62-1.18,1.93Z" style="fill:#263238"></path><path d="M447.05,345a2,2,0,0,0,.65.09,1.16,1.16,0,0,0,1-1.27c-.06-.4-.42-.64-.91-.83l-1.5-.68-1.78-.66c-.65-.18-1.32-.4-2-.57a26.49,26.49,0,0,0-10.36-.43,25.91,25.91,0,0,0-11.65,4.87c-.42.35-.93.71-1.28,1a.72.72,0,0,0,.18,1.08,1,1,0,0,0,1.21,0l1.3-1a23.26,23.26,0,0,1,5.51-3,23.9,23.9,0,0,1,10.43-1.47,22.76,22.76,0,0,1,6.91,1.64,16.59,16.59,0,0,1,1.76.82,3.43,3.43,0,0,1,.58.33,2.58,2.58,0,0,1-.63-.24c-.41-.17-1-.46-1.78-.72a24.35,24.35,0,0,0-17.1.08,23.7,23.7,0,0,0-5.38,2.94l-1.27,1a1.46,1.46,0,0,1-1.85,0,1.41,1.41,0,0,1-.55-.84,1.15,1.15,0,0,1,.29-1c.46-.44.9-.73,1.36-1.1A26.07,26.07,0,0,1,432,340.19a26.5,26.5,0,0,1,10.52.55c.73.19,1.41.43,2.06.62l1.78.71c.55.24,1,.5,1.5.72a2.9,2.9,0,0,1,.66.38,1.12,1.12,0,0,1,.34.64,1.26,1.26,0,0,1-.41,1.07,1.22,1.22,0,0,1-.77.34A1,1,0,0,1,447.05,345Z" style="fill:#455a64"></path><path d="M414.42,335.18a24.23,24.23,0,0,1,26-14c1.42.23.82,2.39-.59,2.16a22,22,0,0,0-23.49,12.95c-.58,1.32-2.52.18-1.94-1.13Z" style="fill:#263238"></path><path d="M414.42,335.18a2.57,2.57,0,0,0,0,.66,1.33,1.33,0,0,0,.4.67,1.06,1.06,0,0,0,1,.25c.39-.09.52-.57.76-1s.43-1,.76-1.52a21.45,21.45,0,0,1,2.35-3.42,22.22,22.22,0,0,1,14.87-7.85l1.68-.09,1.71.05c.57,0,1.15.12,1.73.18a1.62,1.62,0,0,0,.73,0,1,1,0,0,0,.51-.44c.24-.41.17-1-.24-1.11a3.83,3.83,0,0,0-.78-.13l-.84-.1c-.56-.08-1.12-.08-1.67-.11a15,15,0,0,0-1.64,0,30,30,0,0,0-3.19.31,27.21,27.21,0,0,0-3,.72,23.18,23.18,0,0,0-5.2,2.25,24.78,24.78,0,0,0-4,2.89,23.75,23.75,0,0,0-4.56,5.53c-.87,1.46-1.26,2.33-1.31,2.3a3,3,0,0,1,.26-.64,13.76,13.76,0,0,1,.87-1.76,22.61,22.61,0,0,1,4.49-5.7,24.34,24.34,0,0,1,4-3,22.71,22.71,0,0,1,5.28-2.34,22.42,22.42,0,0,1,6.3-1.07,11.76,11.76,0,0,1,1.68,0,14,14,0,0,1,1.7.11l.86.1a3.72,3.72,0,0,1,.91.16,1.09,1.09,0,0,1,.67.83,1.53,1.53,0,0,1-1,1.69,2.06,2.06,0,0,1-1,0c-.57-.06-1.13-.14-1.68-.19l-1.67,0-1.64.09a21.76,21.76,0,0,0-6.07,1.46A22,22,0,0,0,419.9,331a22.7,22.7,0,0,0-2.38,3.32c-.33.51-.54,1-.79,1.49-.12.23-.21.44-.35.67a1,1,0,0,1-.57.46,1.22,1.22,0,0,1-1.13-.34,1.32,1.32,0,0,1-.4-.76A1,1,0,0,1,414.42,335.18Z" style="fill:#455a64"></path><path d="M405.94,326.85a22.15,22.15,0,0,1,20.77-20.73c1.44-.11,1.43,2.13,0,2.24a20.16,20.16,0,0,0-18.53,18.49c-.11,1.43-2.35,1.44-2.24,0Z" style="fill:#263238"></path><path d="M405.94,326.85a1.72,1.72,0,0,0,.2.63,1.13,1.13,0,0,0,1.63,0c.31-.26.29-.73.36-1.26a14,14,0,0,1,.22-1.69,18.88,18.88,0,0,1,1.17-4,20.54,20.54,0,0,1,6.56-8.47,20.49,20.49,0,0,1,5.64-3c.53-.16,1.06-.36,1.61-.48s1.11-.26,1.67-.35l1.72-.21a.89.89,0,0,0,.8-.93.72.72,0,0,0-.83-.78c-.56.05-1.12.1-1.68.19a24.06,24.06,0,0,0-3.23.72,22.34,22.34,0,0,0-5.68,2.6,21.57,21.57,0,0,0-7.21,7.65,23.3,23.3,0,0,0-2.5,6.7c-.18.83-.27,1.49-.33,1.93a3.13,3.13,0,0,1-.12.68,2.79,2.79,0,0,1,0-.69,18,18,0,0,1,.24-2,22.25,22.25,0,0,1,2.37-6.84,21.79,21.79,0,0,1,7.28-7.88,23.11,23.11,0,0,1,5.79-2.68,23.93,23.93,0,0,1,3.3-.74c.57-.09,1.15-.15,1.73-.2a1.28,1.28,0,0,1,1,.33,1.34,1.34,0,0,1,.38,1,1.49,1.49,0,0,1-.34,1,1.35,1.35,0,0,1-.93.48l-1.68.2c-.56.09-1.1.23-1.64.34s-1.05.31-1.57.46a20.2,20.2,0,0,0-5.51,2.9,20.08,20.08,0,0,0-7.73,12.11,16.29,16.29,0,0,0-.27,1.66c-.07.47-.07,1.06-.46,1.38a1.26,1.26,0,0,1-1.86-.12,1,1,0,0,1-.13-.51C405.92,326.91,405.93,326.85,405.94,326.85Z" style="fill:#455a64"></path></g></svg>
